<?xml version="1.0" encoding="utf-8"?>
<!-- Generator: Adobe Illustrator 24.3.0, SVG Export Plug-In . SVG Version: 6.00 Build 0)  -->
<svg version="1.1" id="Слой_1" xmlns="http://www.w3.org/2000/svg" xmlns:xlink="http://www.w3.org/1999/xlink" x="0px" y="0px"
	 viewBox="0 0 2000 2000" style="enable-background:new 0 0 2000 2000;" xml:space="preserve">
<style type="text/css">
	.st0{fill:#FCCB42;}
	.st1{fill:#463671;}
</style>
<path class="st0" d="M382.7,1023l-20.9,45.2c-1,2.1,0.4,4.6,2.8,4.8l49.7,4.5c1.6,0.1,2.9,1.5,3.1,3.1l4.5,49.7
	c0.2,2.4,2.7,3.8,4.8,2.8l45.2-20.9c1.5-0.7,3.3-0.2,4.2,1.1l28.7,40.8c1.4,1.9,4.2,1.9,5.6,0l28.7-40.8c1-1.4,2.7-1.8,4.2-1.1
	l45.2,20.9c2.1,1,4.6-0.4,4.8-2.8l4.5-49.7c0.1-1.6,1.5-2.9,3.1-3.1l49.7-4.5c2.4-0.2,3.8-2.7,2.8-4.8l-20.9-45.2
	c-0.7-1.5-0.2-3.3,1.1-4.2l40.8-28.7c1.9-1.4,1.9-4.2,0-5.6l-40.8-28.7c-1.4-1-1.8-2.7-1.1-4.2l20.9-45.2c1-2.1-0.4-4.6-2.8-4.8
	l-49.7-4.5c-1.6-0.1-2.9-1.5-3.1-3.1l-4.5-49.7c-0.2-2.4-2.7-3.8-4.8-2.8l-45.2,20.9c-1.5,0.7-3.3,0.2-4.2-1.1l-28.7-40.8
	c-1.4-1.9-4.2-1.9-5.6,0l-28.7,40.8c-1,1.4-2.7,1.8-4.2,1.1l-45.2-20.9c-2.1-1-4.6,0.4-4.8,2.8l-4.5,49.7c-0.1,1.6-1.5,2.9-3.1,3.1
	l-49.7,4.5c-2.4,0.2-3.8,2.7-2.8,4.8l20.9,45.2c0.7,1.5,0.2,3.3-1.1,4.2l-40.8,28.7c-1.9,1.4-1.9,4.2,0,5.6l40.8,28.7
	C382.9,1019.7,383.4,1021.5,382.7,1023z M402.4,1044.8l11.9-25.7c0.4-0.9,1.2-1.6,2.2-1.9l29.2-7.8c1.7-0.4,3.4,0.5,4,2.1
	c2,5,4.7,9.7,8,13.8c1.1,1.4,1,3.3-0.2,4.5l-21.3,21.3c-0.7,0.7-1.7,1.1-2.7,1l-28.2-2.5C402.8,1049.4,401.4,1046.9,402.4,1044.8z
	 M475.7,1080.6l-25.7,11.9c-2.1,1-4.6-0.4-4.8-2.8l-2.5-28.2c-0.1-1,0.3-2,1-2.7l21.7-21.7c1.2-1.2,3-1.3,4.3-0.3
	c4.2,2.9,8.8,5.2,13.8,7c1.7,0.6,2.7,2.3,2.2,4.1l-8.2,30.6C477.3,1079.4,476.6,1080.2,475.7,1080.6z M477.8,988.3
	c0-17.7,12.7-30.5,29.9-30.5c17.3,0,29.8,12.8,29.8,30.5c0,17.7-12.5,30.5-29.8,30.5v0C490.4,1018.8,477.8,1006,477.8,988.3z
	 M504.8,1107.2l-16.3-23.1c-0.6-0.8-0.8-1.9-0.5-2.9l9.1-34.1c3.4,0.5,6.9,0.8,10.5,0.8v0c3.6,0,7-0.3,10.4-0.8l9.1,34.1
	c0.3,1,0.1,2-0.5,2.9l-16.3,23.1C509,1109.1,506.2,1109.1,504.8,1107.2z M565.1,1092.5l-25.7-11.9c-0.9-0.4-1.6-1.2-1.9-2.2
	l-8.2-30.5c-0.5-1.7,0.5-3.5,2.2-4.1c5-1.8,9.7-4.2,13.9-7c1.4-0.9,3.2-0.8,4.3,0.3l21.7,21.7c0.7,0.7,1.1,1.7,1,2.7l-2.5,28.2
	C569.8,1092,567.3,1093.5,565.1,1092.5z M579.2,1051.2l-21.3-21.3c-1.2-1.2-1.3-3.1-0.2-4.5c3.3-4.2,5.9-8.8,7.9-13.8
	c0.6-1.6,2.3-2.5,4-2.1l29.1,7.8c1,0.3,1.8,0.9,2.2,1.9l11.9,25.7c1,2.1-0.4,4.6-2.8,4.8l-28.2,2.5
	C580.9,1052.3,579.9,1051.9,579.2,1051.2z M627.5,990l-23.1,16.3c-0.8,0.6-1.9,0.8-2.9,0.5l-32.4-8.7c0.5-3.2,0.8-6.4,0.8-9.8
	c0-4.1-0.4-8.1-1.1-11.9l32.7-8.8c1-0.3,2-0.1,2.9,0.5l23.1,16.3C629.4,985.8,629.4,988.7,627.5,990z M612.8,929.7L601,955.4
	c-0.4,0.9-1.2,1.6-2.2,1.9l-30,8c-1.6,0.4-3.3-0.4-4-2c-2.1-4.8-4.8-9.2-8.1-13.1c-1.1-1.4-1.1-3.3,0.1-4.6l22.3-22.3
	c0.7-0.7,1.7-1.1,2.7-1l28.1,2.5C612.4,925.1,613.8,927.6,612.8,929.7z M539.5,893.9l25.7-11.9c2.1-1,4.6,0.4,4.8,2.8l2.5,28.2
	c0.1,1-0.3,2-1,2.7l-23,23c-1.1,1.1-2.9,1.3-4.2,0.4c-4-2.6-8.4-4.8-13.2-6.5c-1.7-0.6-2.7-2.3-2.2-4l8.7-32.5
	C537.9,895.1,538.6,894.3,539.5,893.9z M510.4,867.3l16.3,23.1c0.6,0.8,0.8,1.9,0.5,2.9l-9.7,36.2c-3.2-0.4-6.4-0.7-9.8-0.7
	c-3.4,0-6.7,0.3-10,0.7l-9.7-36.2c-0.3-1-0.1-2,0.5-2.9l16.3-23.1C506.2,865.4,509,865.4,510.4,867.3z M450.1,882l25.7,11.9
	c0.9,0.4,1.6,1.2,1.9,2.2l8.7,32.6c0.5,1.7-0.5,3.4-2.2,4c-4.7,1.7-9.1,3.8-13.2,6.5c-1.3,0.9-3.1,0.7-4.2-0.4l-23.1-23.1
	c-0.7-0.7-1.1-1.7-1-2.7l2.5-28.2C445.4,882.4,447.9,881,450.1,882z M436,923.3l22.3,22.3c1.3,1.3,1.3,3.2,0.1,4.6
	c-3.3,3.9-6,8.3-8.1,13.1c-0.7,1.5-2.3,2.4-4,2l-30-8c-1-0.3-1.8-0.9-2.2-1.9l-11.9-25.7c-1-2.1,0.4-4.6,2.8-4.8l28.2-2.5
	C434.3,922.2,435.3,922.6,436,923.3z M410.8,968.2c0.8-0.6,1.9-0.8,2.9-0.5l32.7,8.8c-0.7,3.8-1.1,7.8-1.1,11.9
	c0,3.4,0.3,6.6,0.8,9.8l-32.4,8.7c-1,0.3-2,0.1-2.9-0.5L387.7,990c-1.9-1.4-1.9-4.2,0-5.6L410.8,968.2z"/>
<path class="st1" d="M203.3,988.7c0-33.4,25.2-58.4,59-58.4c29.1,0,51.6,19.2,56.1,47.4h-31c-3.8-11.4-13.4-18.8-25.1-18.8
	c-15.7,0-27.3,12.6-27.3,29.8c0,17.1,11.5,29.6,27.3,29.6c12.3,0,22-8,25.1-20.4h31.3c-4.2,29.2-26.9,49-56.5,49
	C228.6,1046.9,203.3,1021.9,203.3,988.7z"/>
<path class="st1" d="M800.5,933.1v111h-30.6V961h-21.4l-4.3,38.6c-3.4,30-17.3,44.9-42.3,44.9h-8.9v-28.1h5.2
	c9.4,0,14.2-5.5,15.7-17.9l7.7-65.4H800.5z"/>
<path class="st1" d="M969.3,933.1v111h-30.9v-42.6h-33.3v42.6h-30.9v-111h30.9v40.1h33.3v-40.1H969.3z"/>
<path class="st1" d="M1115.4,1017.6v26.5H1043v-111h71v26.4h-40.6v16.4h36.5v25.1h-36.5v16.6H1115.4z"/>
<path class="st1" d="M1270.6,933.2v111h-31v-34.8c-5.7,1.6-11.3,2.4-16.6,2.4c-24,0-42.4-15.7-42.4-44.5v-34.1h31.1v33.5
	c0,11.4,5.7,17.3,15.2,17.3c3.6,0,7.9-0.9,12.8-2.7v-48.1H1270.6z"/>
<path class="st1" d="M1439.4,933.1v111h-30.9v-42.6h-33.3v42.6h-30.9v-111h30.9v40.1h33.3v-40.1H1439.4z"/>
<path class="st1" d="M1601.4,1004.7c0,23.1-17,39.5-41.1,39.5h-47.1v-111h30.1v32.2h17C1584.3,965.4,1601.4,981.5,1601.4,1004.7z
	 M1570.6,1004.7c0-7.7-5.8-13-14.1-13h-13.3v26.2h13.3C1564.8,1017.8,1570.6,1012.5,1570.6,1004.7z M1642.3,933.1v111h-31v-111
	H1642.3z"/>
<path class="st1" d="M1814,933.1v111h-30V985l-44.2,59.2h-23.7v-111h30v59.5l43.9-59.5H1814z"/>
<path class="st1" d="M309.4,1221.3v111h-31v-83.1h-31v83.1h-31v-111H309.4z"/>
<path class="st1" d="M450.6,1314.3h-39.3l-6.1,18h-32.8l43.6-111h29.9l44.6,111h-33.7L450.6,1314.3z M430.9,1256l-12.2,34.4h24.4
	L430.9,1256z"/>
<path class="st1" d="M641.8,1261.5c0,23.3-17.5,40.2-41.1,40.2h-16.6v30.7h-30.7v-111h47.3C624.3,1221.3,641.8,1238.2,641.8,1261.5z
	 M610.4,1261.5c0-7.9-5.3-13.5-13.4-13.5h-12.9v26.9H597C605.1,1275,610.4,1269.4,610.4,1261.5z"/>
<path class="st1" d="M770.4,1332.4l-31.8-49v49H708v-111h30.6v46.8l29.3-46.8h35.5l-35.6,53.8l38.9,57.2H770.4z"/>
<path class="st1" d="M1792.9,897.8c-2,13.6-12.6,22.9-26.4,22.9c-14.3,0-25.4-9.6-27.3-22.9h15.1c1.6,5.7,6.3,9.5,12.2,9.5
	c5.8,0,10.3-3.8,11.8-9.5H1792.9z"/>
<g>
	<g>
		<g>
			<path class="st1" d="M223.8,1405.4l15.7,17.9v0.6l-17.1,19.2h-5.7l17.2-19.6l-15.8-18H223.8z M241.3,1405.4h4.6v37.7h-4.6V1405.4
				z M270.5,1443h-5.7l-17.1-19.2v-0.6l15.7-17.9h5.7l-15.8,18L270.5,1443z"/>
			<path class="st1" d="M307.1,1405.4v37.7h-4.5v-29l-23.2,29h-2.8v-37.7h4.5v28.9l23.3-28.9H307.1z"/>
			<path class="st1" d="M349.8,1405.4v37.7h-4.7v-33.5h-15.3l-2.2,20.6c-1,9.6-4.6,13.1-12.3,13.1h-0.8v-4.5h1.1
				c4.6,0,6.8-2.4,7.5-8.4l2.8-25H349.8z"/>
			<path class="st1" d="M359.2,1424.2c0-11.3,8.5-19.6,19.9-19.6c11.4,0,19.9,8.4,19.9,19.6s-8.5,19.6-19.9,19.6
				C367.8,1443.8,359.2,1435.5,359.2,1424.2z M394.1,1424.2c0-8.7-6.3-15-15-15c-8.7,0-15,6.3-15,15c0,8.7,6.4,15,15,15
				C387.8,1439.2,394.1,1432.9,394.1,1424.2z"/>
			<path class="st1" d="M438.8,1405.4v37.7h-4.5v-29l-23.2,29h-2.8v-37.7h4.5v28.9l23.3-28.9H438.8z"/>
			<path class="st1" d="M470,1405.4h4.7v37.7H470V1405.4z M499.7,1443H494l-17-19.3v-0.6l15.9-17.8h5.5l-16.1,18L499.7,1443z"/>
			<path class="st1" d="M501.6,1424.2c0-11.3,8.5-19.6,19.9-19.6c11.4,0,19.9,8.4,19.9,19.6s-8.5,19.6-19.9,19.6
				C510.1,1443.8,501.6,1435.5,501.6,1424.2z M536.4,1424.2c0-8.7-6.3-15-15-15c-8.7,0-15,6.3-15,15c0,8.7,6.4,15,15,15
				C530.1,1439.2,536.4,1432.9,536.4,1424.2z"/>
			<path class="st1" d="M592,1443l-6-29.8l-13.7,28.8h-1.1l-13.6-28.8l-6,29.8H547l7.5-37.7h3.9l13.4,28.2l13.4-28.2h3.9l7.5,37.7
				H592z"/>
			<path class="st1" d="M637.1,1405.4v37.7h-4.7v-33.3h-22v33.3h-4.7v-37.7H637.1z"/>
			<path class="st1" d="M679.8,1405.4v37.7h-4.7v-33.5h-15.3l-2.2,20.6c-1,9.6-4.6,13.1-12.3,13.1h-0.8v-4.5h1.1
				c4.6,0,6.8-2.4,7.5-8.4l2.8-25H679.8z"/>
			<path class="st1" d="M727.1,1426H694c0.8,7.9,6.5,13.2,14.4,13.2c5.7,0,10.2-2.8,12.8-7.4h5c-3.3,7.7-9.8,12-17.8,12
				c-10.9,0-19.1-8.4-19.1-19.7c0-11.2,8.2-19.6,19.1-19.6c11.2,0,18.8,8.7,18.8,19.7C727.2,1424.8,727.2,1425.4,727.1,1426z
				 M694.1,1421.6h28.4c-1.1-7.6-6.7-12.5-14.1-12.5C700.8,1409.1,695.1,1414.1,694.1,1421.6z"/>
			<path class="st1" d="M736.5,1405.4h4.7v37.7h-4.7V1405.4z M766.2,1443h-5.8l-17-19.3v-0.6l15.9-17.8h5.5l-16.1,18L766.2,1443z"/>
			<path class="st1" d="M768.1,1424.2c0-11.2,8.4-19.6,19.5-19.6c8.8,0,15.7,5.1,18.1,13h-4.7c-2.4-5.2-7.4-8.4-13.3-8.4
				c-8.4,0-14.7,6.5-14.7,15c0,8.5,6.3,15,14.7,15c6,0,10.9-3.2,13.3-8.6h4.8c-2.5,8-9.5,13.2-18.1,13.2
				C776.5,1443.8,768.1,1435.4,768.1,1424.2z"/>
		</g>
		<path class="st1" d="M433.3,1394.7c-1.3,4.1-4.9,6.8-9.4,6.8c-4.5,0-8.2-2.7-9.5-6.8h2.7c1.2,2.7,3.7,4.4,6.8,4.4
			c3.1,0,5.6-1.6,6.9-4.4H433.3z"/>
	</g>
</g>
</svg>
