<svg width="192" height="96" viewBox="0 0 192 96" fill="none" xmlns="http://www.w3.org/2000/svg">
<path d="M38.9396 38.1918L37.1956 42C37.1138 42.1918 37.2228 42.3836 37.4408 42.411L41.61 42.7945C41.7463 42.7945 41.8553 42.9041 41.8825 43.0685L42.264 47.2603C42.2912 47.4521 42.482 47.589 42.6727 47.5069L46.4604 45.7534C46.5967 45.6986 46.7329 45.726 46.8147 45.8356L49.2126 49.2603C49.3216 49.4247 49.5669 49.4247 49.6759 49.2603L52.0738 45.8356C52.1556 45.726 52.2918 45.6712 52.4281 45.7534L56.2157 47.5069C56.4065 47.589 56.5972 47.4795 56.6245 47.2603L57.006 43.0685C57.006 42.9315 57.115 42.8219 57.2785 42.7945L61.4476 42.411C61.6384 42.3836 61.7746 42.1918 61.6929 42L59.9489 38.1918C59.8944 38.0548 59.9217 37.9178 60.0307 37.8356L63.4369 35.4247C63.6004 35.3151 63.6004 35.0685 63.4369 34.9589L60.0307 32.548C59.9217 32.4658 59.8672 32.3288 59.9489 32.1918L61.6929 28.3836C61.7746 28.1918 61.6656 28 61.4476 27.9726L57.2785 27.589C57.1422 27.589 57.0332 27.4794 57.006 27.3151L56.6245 23.1233C56.5972 22.9315 56.4065 22.7945 56.2157 22.8767L52.4281 24.6301C52.2918 24.6849 52.1556 24.6575 52.0738 24.5479L49.6759 21.1233C49.5669 20.9589 49.3216 20.9589 49.2126 21.1233L46.8147 24.5479C46.7329 24.6575 46.5967 24.7123 46.4604 24.6301L42.6727 22.8767C42.482 22.7945 42.2912 22.9041 42.264 23.1233L41.8825 27.3151C41.8825 27.4521 41.7735 27.5616 41.61 27.589L37.4408 27.9726C37.2501 28 37.1138 28.1918 37.1956 28.3836L38.9396 32.1918C38.9941 32.3288 38.9668 32.4658 38.8578 32.548L35.4516 34.9589C35.2881 35.0685 35.2881 35.3151 35.4516 35.4247L38.8578 37.8356C38.9668 37.9178 38.9941 38.0822 38.9396 38.1918ZM40.6018 40.0274L41.61 37.863C41.6373 37.7808 41.719 37.726 41.8008 37.6986L44.2532 37.0411C44.3895 37.0137 44.5257 37.0685 44.5802 37.2055C44.7437 37.6164 44.9617 38.0274 45.2342 38.3562C45.3159 38.4658 45.3159 38.6301 45.2069 38.7397L43.4085 40.548C43.354 40.6028 43.2722 40.6301 43.1905 40.6301L40.8198 40.411C40.629 40.4384 40.52 40.2192 40.6018 40.0274ZM46.7329 43.0685L44.5802 44.0822C44.3894 44.1644 44.1987 44.0548 44.1714 43.8356L43.9535 41.4521C43.9535 41.3699 43.9807 41.2877 44.0352 41.2329L45.8609 39.3973C45.9699 39.2877 46.1062 39.2877 46.2152 39.3699C46.5694 39.6164 46.9509 39.8082 47.3869 39.9726C47.5232 40.0274 47.6049 40.1644 47.5776 40.3014L46.8964 42.8767C46.8691 42.9589 46.8147 43.0137 46.7329 43.0685ZM46.9237 35.2877C46.9237 33.8082 47.9864 32.7123 49.4306 32.7123C50.8748 32.7123 51.9103 33.7808 51.9103 35.2877C51.9103 36.7945 50.8748 37.863 49.4306 37.863C47.9864 37.863 46.9237 36.7671 46.9237 35.2877ZM49.1854 45.2877L47.8229 43.3425C47.7684 43.2603 47.7684 43.1781 47.7684 43.0959L48.5314 40.2192C48.8039 40.2466 49.1036 40.274 49.4034 40.274C49.7031 40.274 50.0028 40.2466 50.2753 40.2192L51.0383 43.0959C51.0656 43.1781 51.0383 43.2603 50.9838 43.3425L49.6213 45.2877C49.5396 45.4521 49.2944 45.4521 49.1854 45.2877ZM54.2265 44.0548L52.0738 43.0411C51.9921 43.0137 51.9376 42.9315 51.9103 42.8493L51.2291 40.274C51.2018 40.137 51.2836 39.9726 51.4198 39.9452C51.8286 39.7808 52.2373 39.589 52.5916 39.3425C52.7005 39.2603 52.8641 39.2603 52.9458 39.3699L54.7715 41.2055C54.826 41.2603 54.8533 41.3425 54.8533 41.4247L54.6353 43.8082C54.608 44.0274 54.4173 44.137 54.2265 44.0548ZM55.3983 40.5753L53.5998 38.7671C53.4908 38.6575 53.4908 38.4932 53.5725 38.3836C53.845 38.0274 54.063 37.6438 54.2265 37.2055C54.281 37.0685 54.4173 36.9863 54.5535 37.0411L57.006 37.6986C57.0877 37.726 57.1695 37.7808 57.1967 37.863L58.2049 40.0274C58.2867 40.2192 58.1777 40.411 57.9597 40.4384L55.589 40.6575C55.5617 40.6575 55.48 40.6301 55.3983 40.5753ZM59.4584 35.4247L57.5237 36.7945C57.442 36.8493 57.3602 36.8493 57.2785 36.8493L54.5535 36.1096C54.5808 35.8356 54.608 35.5617 54.608 35.2877C54.608 34.9315 54.5808 34.6027 54.5263 34.274L57.2512 33.5342C57.333 33.5069 57.4147 33.5343 57.4965 33.589L59.4312 34.9589C59.6219 35.0685 59.6219 35.3151 59.4584 35.4247ZM58.2322 30.3562L57.2512 32.5205C57.224 32.6027 57.1422 32.6575 57.0605 32.6849L54.5535 33.3699C54.4173 33.3973 54.281 33.3425 54.2265 33.2055C54.063 32.7945 53.8178 32.4384 53.5453 32.1096C53.4635 32 53.4635 31.8356 53.5453 31.726L55.4255 29.8356C55.48 29.7808 55.5618 29.7534 55.6435 29.7534L58.0142 29.9726C58.205 29.9452 58.314 30.1644 58.2322 30.3562ZM52.0738 27.3151L54.2265 26.3014C54.4173 26.2192 54.608 26.3288 54.6353 26.5479L54.8533 28.9315C54.8533 29.0137 54.826 29.0959 54.7715 29.1507L52.8368 31.0959C52.7551 31.1781 52.5915 31.2055 52.4825 31.1233C52.1556 30.9041 51.7741 30.7123 51.3653 30.5753C51.2291 30.5206 51.1473 30.3836 51.1746 30.2466L51.9103 27.5068C51.9376 27.4247 52.0193 27.3699 52.0738 27.3151ZM49.6486 25.0959L51.0111 27.0411C51.0656 27.1233 51.0656 27.2055 51.0656 27.2877L50.2481 30.3288C49.9756 30.3014 49.7031 30.274 49.4306 30.274C49.1309 30.274 48.8584 30.3014 48.5859 30.3288L47.7684 27.2877C47.7412 27.2055 47.7684 27.1233 47.8229 27.0411L49.1854 25.0959C49.2944 24.9315 49.5396 24.9315 49.6486 25.0959ZM44.5802 26.3288L46.7329 27.3425C46.8147 27.3699 46.8691 27.4521 46.8964 27.5343L47.6322 30.274C47.6594 30.411 47.5776 30.5753 47.4414 30.6027C47.0326 30.7397 46.6784 30.9315 46.3514 31.1507C46.2424 31.2329 46.1062 31.2055 45.9972 31.1233L44.0625 29.1781C44.008 29.1233 43.9807 29.0411 43.9807 28.9589L44.1987 26.5754C44.1987 26.3562 44.4167 26.2466 44.5802 26.3288ZM43.4085 29.8082L45.2887 31.6986C45.3977 31.8082 45.3977 31.9726 45.2887 32.0822C45.0162 32.411 44.7982 32.7945 44.6075 33.1781C44.553 33.3151 44.4167 33.3699 44.2805 33.3425L41.7735 32.6575C41.6918 32.6301 41.61 32.5753 41.5827 32.4932L40.5745 30.3288C40.4928 30.137 40.6018 29.9452 40.8198 29.9178L43.1905 29.6986C43.2722 29.726 43.354 29.7534 43.4085 29.8082ZM41.3103 33.589C41.392 33.5343 41.4738 33.5342 41.5555 33.5342L44.2805 34.274C44.226 34.6027 44.1987 34.9315 44.1987 35.2877C44.1987 35.5617 44.226 35.8356 44.2532 36.1096L41.5283 36.8493C41.4465 36.8767 41.3648 36.8493 41.283 36.7945L39.3483 35.4247C39.1848 35.3151 39.1848 35.0685 39.3483 34.9589L41.3103 33.589Z" fill="#FECE42"/>
<path d="M77.7661 54.411V63.7534H75.1774V56.7671H72.5887V63.7534H70V54.411H77.7661Z" fill="#443571"/>
<path d="M90.6006 62.2466H87.3034L86.7857 63.7534H84.0335L87.6849 54.411H90.1919L93.9251 63.7534H91.0911L90.6006 62.2466ZM88.9384 57.3151L87.9302 60.2192H89.9739L88.9384 57.3151Z" fill="#443571"/>
<path d="M107.604 57.7808C107.604 59.7534 106.133 61.1781 104.171 61.1781H102.781V63.7534H100.22V54.411H104.171C106.133 54.411 107.604 55.8356 107.604 57.7808ZM104.961 57.7808C104.961 57.1233 104.525 56.6575 103.844 56.6575H102.754V58.9315H103.844C104.525 58.9315 104.961 58.4658 104.961 57.7808Z" fill="#443571"/>
<path d="M119.349 63.7534L116.678 59.6164V63.7534H114.117V54.411H116.678V58.3562L119.158 54.411H122.128L119.131 58.9315L122.401 63.7534H119.349Z" fill="#443571"/>
<path d="M23.8978 34.9041C23.8978 32.0822 26.0233 29.9726 28.83 29.9726C31.2552 29.9726 33.1626 31.5891 33.5441 33.9726H30.9554C30.6284 33.0137 29.8382 32.3836 28.8572 32.3836C27.5493 32.3836 26.5683 33.4521 26.5683 34.9041C26.5683 36.3562 27.522 37.3973 28.8572 37.3973C29.8927 37.3973 30.7102 36.7123 30.9554 35.6712H33.5714C33.2172 38.137 31.3097 39.8082 28.83 39.8082C26.0233 39.8082 23.8978 37.6986 23.8978 34.9041Z" fill="#443571"/>
<path d="M73.9279 30.2192V39.5616H71.3665V32.5479H69.568L69.2137 35.8082C68.9412 38.3287 67.7695 39.589 65.6713 39.589H64.9356V37.2329H65.3716C66.1618 37.2329 66.5706 36.7671 66.6796 35.726L67.3335 30.2192H73.9279Z" fill="#443571"/>
<path d="M89.0514 30.2192V39.5616H86.4627V35.9726H83.6832V39.5616H81.0945V30.2192H83.6832V33.589H86.4627V30.2192H89.0514Z" fill="#443571"/>
<path d="M102.267 37.3424V39.5616H96.218V30.2192H102.158V32.4383H98.7794V33.8356H101.831V35.9452H98.7794V37.3424H102.267Z" fill="#443571"/>
<path d="M116.274 30.2192V39.5616H113.685V36.6301C113.194 36.7671 112.731 36.8219 112.295 36.8219C110.279 36.8219 108.726 35.5068 108.726 33.0685V30.1918H111.341V33.0411C111.341 34 111.805 34.4931 112.622 34.4931C112.922 34.4931 113.276 34.411 113.685 34.274V30.2192H116.274Z" fill="#443571"/>
<path d="M131.397 30.2192V39.5616H128.808V35.9726H126.029V39.5616H123.44V30.2192H126.029V33.589H128.808V30.2192H131.397Z" fill="#443571"/>
<path d="M145.948 36.2466C145.948 38.1918 144.531 39.5616 142.488 39.5616H138.536V30.2192H141.071V32.9315H142.488C144.531 32.9315 145.948 34.3014 145.948 36.2466ZM143.387 36.2466C143.387 35.589 142.896 35.1507 142.215 35.1507H141.098V37.3424H142.215C142.896 37.3424 143.387 36.9041 143.387 36.2466ZM149.382 39.5616H146.793V30.2192H149.382V39.5616Z" fill="#443571"/>
<path d="M164.75 30.2192V39.5616H162.244V34.5753L158.538 39.5616H156.548V30.2192H159.055V35.2329L162.734 30.2192H164.75Z" fill="#443571"/>
<path d="M162.979 27.2603C162.816 28.411 161.917 29.2055 160.772 29.2055C159.573 29.2055 158.647 28.411 158.483 27.2603H159.737C159.873 27.7534 160.254 28.0548 160.772 28.0548C161.263 28.0548 161.644 27.726 161.753 27.2603H162.979Z" fill="#443571"/>
</svg>
