<?xml version="1.0" encoding="utf-8"?>
<!-- Generator: Adobe Illustrator 24.3.0, SVG Export Plug-In . SVG Version: 6.00 Build 0)  -->
<svg version="1.1" id="Слой_1" xmlns="http://www.w3.org/2000/svg" xmlns:xlink="http://www.w3.org/1999/xlink" x="0px" y="0px"
	 viewBox="0 0 2000 2000" style="enable-background:new 0 0 2000 2000;" xml:space="preserve">
<style type="text/css">
	.st0{fill:#443B67;}
	.st1{fill:#FBCE4E;}
</style>
<g>
	<path class="st0" d="M357.4,904c0,0-2.3,422.4,655.5,939.3c0,0,579.4-502.4,631.6-953"/>
	<g>
		<circle class="st0" cx="1000" cy="806.5" r="649.8"/>
	</g>
	<g>
		<path class="st1" d="M668.3,984.9L612.6,1105c-2.6,5.7,1.2,12.3,7.4,12.9l131.8,12c4.4,0.4,7.8,3.9,8.2,8.2l11.8,131.8
			c0.6,6.3,7.1,10.1,12.8,7.4l120.2-55.5c4-1.8,8.7-0.6,11.2,3l76.1,108.3c3.6,5.1,11.2,5.1,14.8,0l76.3-108.1
			c2.5-3.6,7.3-4.8,11.2-3l120.1,55.7c5.7,2.6,12.3-1.2,12.9-7.4l12-131.8c0.4-4.4,3.9-7.8,8.2-8.2l131.8-11.8
			c6.3-0.6,10.1-7.1,7.4-12.8l-55.5-120.2c-1.8-4-0.6-8.7,3-11.2l108.3-76.1c5.1-3.6,5.1-11.2,0-14.8l-108.1-76.3
			c-3.6-2.5-4.8-7.3-3-11.2l55.7-120.1c2.6-5.7-1.2-12.3-7.4-12.9l-131.8-12c-4.4-0.4-7.8-3.9-8.2-8.2l-11.8-131.8
			c-0.6-6.3-7.1-10.1-12.8-7.4l-120.2,55.5c-4,1.8-8.7,0.6-11.2-3l-76.1-108.3c-3.6-5.1-11.2-5.1-14.8,0l-76.4,108.1
			c-2.5,3.6-7.3,4.8-11.2,3l-120.1-55.7c-5.7-2.6-12.3,1.2-12.9,7.4l-12,131.8c-0.4,4.4-3.9,7.8-8.2,8.2l-131.8,11.8
			c-6.3,0.6-10.1,7.1-7.4,12.8l55.5,120.2c1.8,4,0.6,8.7-3,11.2l-108.3,76.1c-5.1,3.6-5.1,11.2,0,14.8l108.1,76.3
			C668.9,976.2,670.1,980.9,668.3,984.9z M720.4,1042.8l31.6-68.1c1.1-2.4,3.3-4.3,5.9-4.9l77.5-20.7c4.5-1.2,8.9,1.3,10.6,5.5
			c5.3,13.4,12.4,25.7,21.1,36.7c2.9,3.6,2.7,8.7-0.6,12l-56.7,56.6c-1.9,1.9-4.6,2.9-7.2,2.6l-74.7-6.8
			C721.6,1055.1,717.8,1048.5,720.4,1042.8z M915.1,1138.2l-68.1,31.5c-5.7,2.6-12.3-1.2-12.8-7.4l-6.7-74.8
			c-0.2-2.7,0.7-5.3,2.6-7.2l57.8-57.6c3.1-3.1,7.9-3.4,11.5-0.9c11.1,7.7,23.4,13.9,36.7,18.7c4.5,1.6,7.1,6.2,5.8,10.8l-21.8,81.1
			C919.4,1134.9,917.5,1137,915.1,1138.2z M920.7,893.2c0-46.9,33.8-80.9,79.6-80.9s79,33.9,78.9,81.1c0,47.1-33.3,80.9-79.1,80.9v0
			C954.3,974.2,920.7,940,920.7,893.2z M992.3,1208.7l-43.2-61.4c-1.5-2.2-2-5-1.3-7.6l24.3-90.5c9.1,1.3,18.3,2.1,28,2.1v0
			c9.5,0,18.6-0.8,27.5-2l24.1,90.5c0.7,2.6,0.2,5.4-1.4,7.6l-43.3,61.3C1003.5,1213.9,995.9,1213.9,992.3,1208.7z M1152.5,1169.9
			l-68.1-31.6c-2.4-1.1-4.3-3.3-4.9-5.9l-21.6-81c-1.2-4.6,1.4-9.2,5.9-10.8c13.4-4.8,25.7-11,36.9-18.7c3.6-2.5,8.4-2.2,11.5,0.9
			l57.5,57.6c1.9,1.9,2.9,4.6,2.6,7.2l-6.8,74.7C1164.7,1168.8,1158.2,1172.6,1152.5,1169.9z M1189.8,1060.3l-56.5-56.6
			c-3.3-3.3-3.4-8.3-0.5-12c8.7-11,15.8-23.3,21.1-36.7c1.7-4.3,6.2-6.7,10.6-5.5l77.3,20.8c2.6,0.7,4.8,2.5,5.9,5l31.5,68.1
			c2.6,5.7-1.2,12.3-7.4,12.8l-74.7,6.7C1194.4,1063.2,1191.7,1062.2,1189.8,1060.3z M1318.3,898.1l-61.4,43.2c-2.2,1.5-5,2-7.6,1.3
			l-85.9-23.1c1.3-8.4,2.1-17.1,2.1-26.1c0-11-1-21.5-2.9-31.6l86.7-23.1c2.6-0.7,5.4-0.2,7.6,1.4l61.3,43.3
			C1323.5,886.9,1323.5,894.5,1318.3,898.1z M1279.6,737.9L1248,806c-1.1,2.4-3.3,4.3-5.9,4.9l-79.6,21.2c-4.3,1.2-8.7-1.1-10.5-5.2
			c-5.6-12.7-12.8-24.4-21.5-34.8c-3-3.6-2.9-8.8,0.4-12.2l59.2-59.1c1.9-1.9,4.6-2.9,7.2-2.6l74.7,6.8
			C1278.4,725.6,1282.2,732.2,1279.6,737.9z M1084.9,642.6l68.1-31.5c5.7-2.6,12.3,1.2,12.8,7.4l6.7,74.8c0.2,2.7-0.7,5.3-2.6,7.2
			l-61.2,61.1c-3,3-7.6,3.4-11.1,1c-10.7-7-22.4-12.8-35-17.2c-4.5-1.6-7.1-6.1-5.9-10.7l23.2-86.3
			C1080.6,645.9,1082.5,643.7,1084.9,642.6z M1007.8,572l43.2,61.4c1.5,2.2,2,5,1.3,7.6l-25.8,96c-8.4-1.1-17.1-1.9-26-1.9
			c-9.1,0-17.9,0.8-26.5,1.9l-25.6-96.1c-0.7-2.6-0.2-5.4,1.4-7.6l43.3-61.3C996.5,566.9,1004.1,566.9,1007.8,572z M847.5,610.8
			l68.1,31.6c2.4,1.1,4.3,3.3,4.9,5.9l23.1,86.5c1.2,4.6-1.4,9.1-5.9,10.7c-12.6,4.4-24.3,10.2-34.9,17.2c-3.6,2.3-8.1,2-11.1-1
			l-61.2-61.4c-1.9-1.9-2.9-4.6-2.6-7.2l6.8-74.7C835.3,612,841.8,608.2,847.5,610.8z M810.2,720.4l59.2,59.4
			c3.3,3.3,3.4,8.6,0.4,12.2c-8.7,10.4-15.9,22-21.6,34.7c-1.8,4.1-6.2,6.4-10.5,5.2l-79.6-21.4c-2.6-0.7-4.8-2.5-5.9-5l-31.4-68.1
			c-2.6-5.7,1.2-12.3,7.4-12.8l74.7-6.7C805.6,717.6,808.3,718.5,810.2,720.4z M743.1,839.5c2.2-1.5,5-2,7.6-1.3l86.7,23.3
			c-1.9,10.1-3,20.7-3,31.6c0,9,0.8,17.6,2.1,26.1l-86,22.9c-2.6,0.7-5.4,0.2-7.6-1.4l-61.3-43.3c-5.1-3.6-5.1-11.2,0-14.8
			L743.1,839.5z"/>
	</g>
</g>
</svg>
