<svg width="22" height="22" viewBox="0 0 22 22" fill="none" xmlns="http://www.w3.org/2000/svg">
<path d="M15.3748 2.24984C16.5342 2.25331 17.645 2.71539 18.4648 3.53517C19.2846 4.35495 19.7467 5.46581 19.7501 6.62515V15.3748C19.7467 16.5342 19.2846 17.645 18.4648 18.4648C17.645 19.2846 16.5342 19.7467 15.3748 19.7501H6.62515C5.46581 19.7467 4.35495 19.2846 3.53517 18.4648C2.71539 17.645 2.25331 16.5342 2.24984 15.3748V6.62515C2.25331 5.46581 2.71539 4.35495 3.53517 3.53517C4.35495 2.71539 5.46581 2.25331 6.62515 2.24984H15.3748ZM15.3748 0.5H6.62515C3.25625 0.5 0.5 3.25625 0.5 6.62515V15.3748C0.5 18.7437 3.25625 21.5 6.62515 21.5H15.3748C18.7437 21.5 21.5 18.7437 21.5 15.3748V6.62515C21.5 3.25625 18.7437 0.5 15.3748 0.5Z" fill="white"/>
<path d="M16.6874 6.62488C16.4278 6.62488 16.1741 6.5479 15.9582 6.40368C15.7424 6.25946 15.5742 6.05448 15.4748 5.81465C15.3755 5.57482 15.3495 5.31092 15.4001 5.05632C15.4508 4.80172 15.5758 4.56786 15.7593 4.3843C15.9429 4.20074 16.1768 4.07574 16.4314 4.0251C16.686 3.97445 16.9499 4.00045 17.1897 4.09979C17.4295 4.19913 17.6345 4.36735 17.7787 4.58319C17.9229 4.79903 17.9999 5.05279 17.9999 5.31238C18.0003 5.48484 17.9666 5.65568 17.9008 5.81509C17.8349 5.97449 17.7383 6.11933 17.6163 6.24128C17.4944 6.36323 17.3495 6.4599 17.1901 6.52572C17.0307 6.59155 16.8599 6.62525 16.6874 6.62488Z" fill="white"/>
<path d="M11 7.49923C11.6922 7.49923 12.3689 7.70451 12.9445 8.08912C13.5201 8.47372 13.9688 9.02037 14.2337 9.65994C14.4986 10.2995 14.5679 11.0033 14.4329 11.6822C14.2978 12.3612 13.9644 12.9849 13.4749 13.4744C12.9854 13.9639 12.3618 14.2972 11.6828 14.4323C11.0038 14.5673 10.3001 14.498 9.6605 14.2331C9.02093 13.9682 8.47428 13.5196 8.08968 12.944C7.70508 12.3684 7.4998 11.6917 7.4998 10.9994C7.50079 10.0714 7.86988 9.18169 8.52607 8.5255C9.18226 7.86931 10.072 7.50023 11 7.49923ZM11 5.74939C9.9616 5.74939 8.94657 6.0573 8.08321 6.63417C7.21985 7.21105 6.54695 8.03099 6.14959 8.9903C5.75223 9.94961 5.64826 11.0052 5.85083 12.0236C6.05341 13.042 6.55342 13.9775 7.28765 14.7117C8.02187 15.4459 8.95733 15.9459 9.97573 16.1485C10.9941 16.3511 12.0497 16.2471 13.009 15.8498C13.9684 15.4524 14.7883 14.7795 15.3652 13.9161C15.942 13.0528 16.25 12.0377 16.25 10.9994C16.25 9.607 15.6968 8.27164 14.7123 7.28708C13.7277 6.30251 12.3923 5.74939 11 5.74939Z" fill="white"/>
</svg>
