<svg width="22" height="16" viewBox="0 0 22 16" fill="none" xmlns="http://www.w3.org/2000/svg">
<path d="M21.3651 3.53282C21.3651 1.65787 20.0073 0.149579 18.3295 0.149579C16.057 0.0416654 13.7393 0 11.3708 0H10.6324C8.26959 0 5.94781 0.0416655 3.67526 0.149996C2.00161 0.149996 0.643822 1.66662 0.643822 3.54157C0.54127 5.02445 0.497788 6.50774 0.500249 7.99103C0.496147 9.47433 0.542638 10.959 0.63972 12.4451C0.63972 14.32 1.99751 15.8408 3.67116 15.8408C6.05857 15.9533 8.50751 16.0033 10.9975 15.9991C13.4915 16.0075 15.9336 15.9547 18.3238 15.8408C20.0015 15.8408 21.3593 14.32 21.3593 12.4451C21.4578 10.9576 21.5029 9.47433 21.4988 7.98687C21.5081 6.50357 21.4635 5.01889 21.3651 3.53282ZM8.99156 12.0784V3.89114L14.9396 7.9827L8.99156 12.0784Z" fill="white"/>
</svg>
