<svg width="16" height="15" viewBox="0 0 16 15" fill="none" xmlns="http://www.w3.org/2000/svg">
<path d="M7.57304 0.700569C7.7679 0.380844 8.2321 0.380845 8.42696 0.700569L9.98356 3.25471C10.0861 3.42294 10.2778 3.51528 10.4733 3.49055L13.4407 3.11507C13.8122 3.06807 14.1016 3.431 13.9731 3.78269L12.9467 6.59217C12.8791 6.77722 12.9265 6.98471 13.0677 7.1221L15.2114 9.20802C15.4798 9.46914 15.3765 9.92171 15.0214 10.0405L12.1849 10.9898C11.9981 11.0523 11.8654 11.2187 11.846 11.4147L11.5518 14.3913C11.5149 14.7639 11.0967 14.9653 10.7824 14.7618L8.27178 13.136C8.10641 13.0289 7.89359 13.0289 7.72822 13.136L5.21757 14.7618C4.90329 14.9653 4.48505 14.7639 4.44822 14.3913L4.15397 11.4147C4.13459 11.2187 4.00189 11.0523 3.81507 10.9898L0.978589 10.0405C0.623521 9.92171 0.520225 9.46914 0.788574 9.20802L2.9323 7.1221C3.0735 6.98471 3.12085 6.77722 3.05325 6.59217L2.02687 3.78269C1.89839 3.431 2.18782 3.06807 2.55928 3.11507L5.52671 3.49055C5.72216 3.51528 5.91391 3.42294 6.01644 3.25471L7.57304 0.700569Z" fill="#F4D942"/>
</svg>
