<svg width="22" height="22" viewBox="0 0 22 22" fill="none" xmlns="http://www.w3.org/2000/svg">
<path d="M16.6897 9.10345V22H21.2414V9.10345H16.6897ZM20.4828 20.8621C20.4828 21.0718 20.3132 21.2414 20.1034 21.2414H18.5862C18.3764 21.2414 18.2069 21.0718 18.2069 20.8621V19.3448C18.2069 19.1351 18.3764 18.9655 18.5862 18.9655H20.1034C20.3132 18.9655 20.4828 19.1351 20.4828 19.3448V20.8621ZM20.4828 17.8276C20.4828 18.0373 20.3132 18.2069 20.1034 18.2069H18.5862C18.3764 18.2069 18.2069 18.0373 18.2069 17.8276V16.3103C18.2069 16.1006 18.3764 15.931 18.5862 15.931H20.1034C20.3132 15.931 20.4828 16.1006 20.4828 16.3103V17.8276ZM20.4828 14.7931C20.4828 15.0029 20.3132 15.1724 20.1034 15.1724H18.5862C18.3764 15.1724 18.2069 15.0029 18.2069 14.7931V13.2759C18.2069 13.0661 18.3764 12.8966 18.5862 12.8966H20.1034C20.3132 12.8966 20.4828 13.0661 20.4828 13.2759V14.7931ZM20.4828 11.7586C20.4828 11.9684 20.3132 12.1379 20.1034 12.1379H18.5862C18.3764 12.1379 18.2069 11.9684 18.2069 11.7586V10.2414C18.2069 10.0316 18.3764 9.86207 18.5862 9.86207H20.1034C20.3132 9.86207 20.4828 10.0316 20.4828 10.2414V11.7586Z" fill="#F4D942"/>
<path d="M10.6207 16.6897H11.3793V17.4483H10.6207V16.6897Z" fill="#F4D942"/>
<path d="M10.6207 13.6552H11.3793V14.4138H10.6207V13.6552Z" fill="#F4D942"/>
<path d="M10.6207 10.6207H11.3793V11.3793H10.6207V10.6207Z" fill="#F4D942"/>
<path d="M2.27586 13.6552H3.03448V14.4138H2.27586V13.6552Z" fill="#F4D942"/>
<path d="M13.6552 16.6897H14.4138V17.4483H13.6552V16.6897Z" fill="#F4D942"/>
<path d="M2.27586 10.6207H3.03448V11.3793H2.27586V10.6207Z" fill="#F4D942"/>
<path d="M0.75862 22H5.31034V9.10345H0.75862V22ZM1.51724 10.2414C1.51724 10.0316 1.68679 9.86207 1.89655 9.86207H3.41379C3.62355 9.86207 3.7931 10.0316 3.7931 10.2414V11.7586C3.7931 11.9684 3.62355 12.1379 3.41379 12.1379H1.89655C1.68679 12.1379 1.51724 11.9684 1.51724 11.7586V10.2414ZM1.51724 13.2759C1.51724 13.0661 1.68679 12.8966 1.89655 12.8966H3.41379C3.62355 12.8966 3.7931 13.0661 3.7931 13.2759V14.7931C3.7931 15.0029 3.62355 15.1724 3.41379 15.1724H1.89655C1.68679 15.1724 1.51724 15.0029 1.51724 14.7931V13.2759ZM1.51724 16.3103C1.51724 16.1006 1.68679 15.931 1.89655 15.931H3.41379C3.62355 15.931 3.7931 16.1006 3.7931 16.3103V17.8276C3.7931 18.0373 3.62355 18.2069 3.41379 18.2069H1.89655C1.68679 18.2069 1.51724 18.0373 1.51724 17.8276V16.3103ZM1.51724 19.3448C1.51724 19.1351 1.68679 18.9655 1.89655 18.9655H3.41379C3.62355 18.9655 3.7931 19.1351 3.7931 19.3448V20.8621C3.7931 21.0718 3.62355 21.2414 3.41379 21.2414H1.89655C1.68679 21.2414 1.51724 21.0718 1.51724 20.8621V19.3448Z" fill="#F4D942"/>
<path d="M1.51724 7.58621H5.31034V8.34483H1.51724V7.58621Z" fill="#F4D942"/>
<path d="M2.27586 19.7241H3.03448V20.4828H2.27586V19.7241Z" fill="#F4D942"/>
<path d="M7.58621 10.6207H8.34483V11.3793H7.58621V10.6207Z" fill="#F4D942"/>
<path d="M9.86207 19.7241H12.1379V22H9.86207V19.7241Z" fill="#F4D942"/>
<path d="M7.58621 13.6552H8.34483V14.4138H7.58621V13.6552Z" fill="#F4D942"/>
<path d="M7.58621 16.6897H8.34483V17.4483H7.58621V16.6897Z" fill="#F4D942"/>
<path d="M2.27586 16.6897H3.03448V17.4483H2.27586V16.6897Z" fill="#F4D942"/>
<path d="M12.0856 6.66638L11.3596 8.844C11.308 8.99914 11.1635 9.10345 11 9.10345C10.8365 9.10345 10.6916 8.99914 10.6404 8.844L9.91441 6.66638C9.47669 6.53628 9.07765 6.33069 8.72679 6.06897H6.06897V22H9.10345V19.3448C9.10345 19.1351 9.273 18.9655 9.48276 18.9655H12.5172C12.727 18.9655 12.8966 19.1351 12.8966 19.3448V22H15.931V6.06897H13.2732C12.9223 6.33069 12.5237 6.53628 12.0856 6.66638ZM9.10345 17.8276C9.10345 18.0373 8.9339 18.2069 8.72414 18.2069H7.2069C6.99714 18.2069 6.82759 18.0373 6.82759 17.8276V16.3103C6.82759 16.1006 6.99714 15.931 7.2069 15.931H8.72414C8.9339 15.931 9.10345 16.1006 9.10345 16.3103V17.8276ZM9.10345 14.7931C9.10345 15.0029 8.9339 15.1724 8.72414 15.1724H7.2069C6.99714 15.1724 6.82759 15.0029 6.82759 14.7931V13.2759C6.82759 13.0661 6.99714 12.8966 7.2069 12.8966H8.72414C8.9339 12.8966 9.10345 13.0661 9.10345 13.2759V14.7931ZM9.10345 11.7586C9.10345 11.9684 8.9339 12.1379 8.72414 12.1379H7.2069C6.99714 12.1379 6.82759 11.9684 6.82759 11.7586V10.2414C6.82759 10.0316 6.99714 9.86207 7.2069 9.86207H8.72414C8.9339 9.86207 9.10345 10.0316 9.10345 10.2414V11.7586ZM12.1379 17.8276C12.1379 18.0373 11.9684 18.2069 11.7586 18.2069H10.2414C10.0316 18.2069 9.86207 18.0373 9.86207 17.8276V16.3103C9.86207 16.1006 10.0316 15.931 10.2414 15.931H11.7586C11.9684 15.931 12.1379 16.1006 12.1379 16.3103V17.8276ZM12.1379 14.7931C12.1379 15.0029 11.9684 15.1724 11.7586 15.1724H10.2414C10.0316 15.1724 9.86207 15.0029 9.86207 14.7931V13.2759C9.86207 13.0661 10.0316 12.8966 10.2414 12.8966H11.7586C11.9684 12.8966 12.1379 13.0661 12.1379 13.2759V14.7931ZM12.1379 11.7586C12.1379 11.9684 11.9684 12.1379 11.7586 12.1379H10.2414C10.0316 12.1379 9.86207 11.9684 9.86207 11.7586V10.2414C9.86207 10.0316 10.0316 9.86207 10.2414 9.86207H11.7586C11.9684 9.86207 12.1379 10.0316 12.1379 10.2414V11.7586ZM15.1724 17.8276C15.1724 18.0373 15.0029 18.2069 14.7931 18.2069H13.2759C13.0661 18.2069 12.8966 18.0373 12.8966 17.8276V16.3103C12.8966 16.1006 13.0661 15.931 13.2759 15.931H14.7931C15.0029 15.931 15.1724 16.1006 15.1724 16.3103V17.8276ZM15.1724 14.7931C15.1724 15.0029 15.0029 15.1724 14.7931 15.1724H13.2759C13.0661 15.1724 12.8966 15.0029 12.8966 14.7931V13.2759C12.8966 13.0661 13.0661 12.8966 13.2759 12.8966H14.7931C15.0029 12.8966 15.1724 13.0661 15.1724 13.2759V14.7931ZM14.7931 9.86207C15.0029 9.86207 15.1724 10.0316 15.1724 10.2414V11.7586C15.1724 11.9684 15.0029 12.1379 14.7931 12.1379H13.2759C13.0661 12.1379 12.8966 11.9684 12.8966 11.7586V10.2414C12.8966 10.0316 13.0661 9.86207 13.2759 9.86207H14.7931Z" fill="#F4D942"/>
<path d="M18.9655 19.7241H19.7241V20.4828H18.9655V19.7241Z" fill="#F4D942"/>
<path d="M16.6897 7.58621H20.4828V8.34483H16.6897V7.58621Z" fill="#F4D942"/>
<path d="M13.6552 13.6552H14.4138V14.4138H13.6552V13.6552Z" fill="#F4D942"/>
<path d="M18.9655 16.6897H19.7241V17.4483H18.9655V16.6897Z" fill="#F4D942"/>
<path d="M13.6552 10.6207H14.4138V11.3793H13.6552V10.6207Z" fill="#F4D942"/>
<path d="M18.9655 13.6552H19.7241V14.4138H18.9655V13.6552Z" fill="#F4D942"/>
<path d="M10.2971 5.98362C10.4246 6.01397 10.5274 6.10803 10.5691 6.23245L11 7.52476L11.4309 6.23283C11.4722 6.10841 11.5754 6.01434 11.7029 5.984C13.076 5.65779 14.0345 4.44514 14.0345 3.03448C14.0345 1.36134 12.6731 0 11 0C9.32686 0 7.96552 1.36134 7.96552 3.03448C7.96552 4.44514 8.92403 5.65779 10.2971 5.98362ZM11 0.758621C12.2551 0.758621 13.2759 1.77934 13.2759 3.03448C13.2759 4.28962 12.2551 5.31034 11 5.31034C9.74486 5.31034 8.72414 4.28962 8.72414 3.03448C8.72414 1.77934 9.74486 0.758621 11 0.758621Z" fill="#F4D942"/>
<path d="M18.9655 10.6207H19.7241V11.3793H18.9655V10.6207Z" fill="#F4D942"/>
<path d="M11 4.55172C11.8379 4.55172 12.5172 3.87243 12.5172 3.03448C12.5172 2.19653 11.8379 1.51724 11 1.51724C10.1621 1.51724 9.48276 2.19653 9.48276 3.03448C9.48276 3.87243 10.1621 4.55172 11 4.55172Z" fill="#F4D942"/>
</svg>
