<svg width="12" height="10" viewBox="0 0 12 10" fill="none" xmlns="http://www.w3.org/2000/svg">
<path d="M11.99 3.89937C11.9829 3.86632 11.9724 3.83407 11.9587 3.80312L10.7781 1.04812C10.5059 0.411562 9.84375 0 9.09031 0H2.90969C2.15688 0 1.49407 0.411562 1.22219 1.04812L0.0403165 3.80312C0.0134563 3.86527 -0.000268385 3.9323 3.9756e-06 4V9.49999C3.9756e-06 9.6326 0.0526825 9.75978 0.146451 9.85355C0.240219 9.94732 0.367396 9.99999 0.500004 9.99999H1.5C1.63261 9.99999 1.75979 9.94732 1.85356 9.85355C1.94732 9.75978 2 9.6326 2 9.49999V8.99999H10V9.49999C10 9.6326 10.0527 9.75978 10.1464 9.85355C10.2402 9.94732 10.3674 9.99999 10.5 9.99999H11.5C11.6326 9.99999 11.7598 9.94732 11.8536 9.85355C11.9473 9.75978 12 9.6326 12 9.49999V4C12 3.96621 11.9967 3.93249 11.99 3.89937ZM2.5 7C2.30222 7 2.10888 6.94135 1.94443 6.83147C1.77998 6.72158 1.65181 6.56541 1.57612 6.38268C1.50044 6.19995 1.48063 5.99889 1.51922 5.80491C1.5578 5.61093 1.65304 5.43274 1.7929 5.29289C1.93275 5.15304 2.11093 5.0578 2.30491 5.01921C2.49889 4.98063 2.69996 5.00043 2.88269 5.07612C3.06541 5.1518 3.22159 5.27998 3.33147 5.44443C3.44135 5.60888 3.5 5.80222 3.5 6C3.5 6.26521 3.39465 6.51957 3.20711 6.7071C3.01957 6.89464 2.76522 7 2.5 7ZM9.5 7C9.30222 7 9.10888 6.94135 8.94443 6.83147C8.77998 6.72158 8.65181 6.56541 8.57612 6.38268C8.50043 6.19995 8.48063 5.99889 8.51921 5.80491C8.5578 5.61093 8.65304 5.43274 8.79289 5.29289C8.93275 5.15304 9.11093 5.0578 9.30491 5.01921C9.49889 4.98063 9.69996 5.00043 9.88268 5.07612C10.0654 5.1518 10.2216 5.27998 10.3315 5.44443C10.4413 5.60888 10.5 5.80222 10.5 6C10.5 6.26521 10.3946 6.51957 10.2071 6.7071C10.0196 6.89464 9.76522 7 9.5 7ZM1.25813 3.5L2.14032 1.44219C2.25344 1.17781 2.5625 0.999999 2.90969 0.999999H9.09031C9.43719 0.999999 9.74656 1.17781 9.85969 1.44219L10.7419 3.5H1.25813Z" fill="#444444"/>
</svg>
