<svg width="150" height="80" viewBox="0 0 150 80" fill="none" xmlns="http://www.w3.org/2000/svg">
<path d="M123.647 80H26.2055C11.7657 80 0 69.0274 0 55.5611C0 42.0948 11.7657 31.1222 26.2055 31.1222C27.596 31.1222 28.8796 31.2219 29.9492 31.3217C30.484 13.9651 45.7795 0 64.6047 0C77.547 0 89.2057 6.6833 95.3025 17.3566C96.2652 17.2569 97.3349 17.1571 98.2975 17.1571C107.817 17.1571 116.16 22.9426 118.941 31.4214C120.652 31.1222 122.043 31.0224 123.54 31.0224C137.98 31.0224 149.853 41.995 149.853 55.5611C149.746 69.1272 138.087 80 123.647 80ZM26.2055 32.9177C12.8354 32.9177 1.92529 43.0923 1.92529 55.5611C1.92529 68.0299 12.8354 78.2045 26.2055 78.2045H123.647C137.017 78.2045 147.928 68.0299 147.928 55.5611C147.928 42.9925 137.018 32.818 123.54 32.818C121.936 32.818 120.332 33.0175 118.513 33.3167L117.657 33.4165L117.444 32.6185C115.197 24.5387 107.282 18.8529 98.2975 18.8529C97.2279 18.8529 96.0513 18.9526 94.9817 19.1521L94.3399 19.2519L94.0191 18.6534C88.4571 8.17956 77.1191 1.69577 64.7116 1.69577C46.6352 1.69577 31.9815 15.3616 31.9815 32.2194V33.4165L30.9119 33.217C29.4144 33.1172 27.9169 32.9177 26.2055 32.9177Z" fill="#D5D5D5"/>
</svg>
