<svg width="105" height="62" viewBox="0 0 105 62" fill="none" xmlns="http://www.w3.org/2000/svg">
<path d="M78.9122 61.1274V61.1278L78.9254 61.1271C93.3072 60.3702 104.591 49.355 104.591 36.031C104.591 22.2227 92.4108 11.0029 77.5077 11.0029C74.8968 11.0029 72.2887 11.3933 69.6841 12.1093C67.2833 5.29494 60.4454 0.627441 52.6704 0.627441C44.1261 0.627441 36.6639 6.34982 35.1589 14.1108C27.5204 15.5901 20.9818 20.6078 17.9106 27.3253C8.25913 27.8775 0.75 35.1773 0.75 44.2222C0.75 53.5247 8.9377 61.1274 19.0366 61.1274H78.9122ZM36.7279 14.915L36.7279 14.915L36.7287 14.9102C37.8897 7.67352 44.7211 2.21959 52.6704 2.21959C59.9596 2.21959 66.36 6.79544 68.3229 13.3691C68.3232 13.3701 68.3235 13.3711 68.3238 13.3721L68.4699 13.9121L68.5399 14.1706L68.793 14.083L69.3797 13.8797C69.3805 13.8795 69.3813 13.8792 69.3821 13.879C72.0908 13.0004 74.799 12.595 77.5077 12.595C91.5076 12.595 102.908 23.1499 102.908 36.031C102.908 48.439 92.3884 58.7876 78.9053 59.5353H19.0366C9.84156 59.5353 2.43273 52.6664 2.43273 44.2222C2.43273 35.9115 9.47578 29.1803 18.449 28.909H18.8148H18.979L19.0443 28.7584L19.1921 28.4171L19.1921 28.4171L19.1932 28.4145C21.9662 21.8108 28.3949 16.8795 36.0042 15.5952C36.0048 15.5951 36.0054 15.595 36.006 15.5949L36.4459 15.5273L36.6223 15.5001L36.6539 15.3246L36.7279 14.915Z" fill="#D5D5D5" stroke="#D5D5D5" stroke-width="0.5"/>
</svg>
