<svg width="24" height="24" viewBox="0 0 24 24" fill="none" xmlns="http://www.w3.org/2000/svg">
<path d="M18.2069 9.93104V24H23.1724V9.93104H18.2069ZM22.3448 22.7586C22.3448 22.9874 22.1599 23.1724 21.931 23.1724H20.2759C20.047 23.1724 19.8621 22.9874 19.8621 22.7586V21.1034C19.8621 20.8746 20.047 20.6897 20.2759 20.6897H21.931C22.1599 20.6897 22.3448 20.8746 22.3448 21.1034V22.7586ZM22.3448 19.4483C22.3448 19.6771 22.1599 19.8621 21.931 19.8621H20.2759C20.047 19.8621 19.8621 19.6771 19.8621 19.4483V17.7931C19.8621 17.5643 20.047 17.3793 20.2759 17.3793H21.931C22.1599 17.3793 22.3448 17.5643 22.3448 17.7931V19.4483ZM22.3448 16.1379C22.3448 16.3668 22.1599 16.5517 21.931 16.5517H20.2759C20.047 16.5517 19.8621 16.3668 19.8621 16.1379V14.4828C19.8621 14.2539 20.047 14.069 20.2759 14.069H21.931C22.1599 14.069 22.3448 14.2539 22.3448 14.4828V16.1379ZM22.3448 12.8276C22.3448 13.0564 22.1599 13.2414 21.931 13.2414H20.2759C20.047 13.2414 19.8621 13.0564 19.8621 12.8276V11.1724C19.8621 10.9436 20.047 10.7586 20.2759 10.7586H21.931C22.1599 10.7586 22.3448 10.9436 22.3448 11.1724V12.8276Z" fill="#97B13A"/>
<path d="M11.5862 18.2069H12.4138V19.0345H11.5862V18.2069Z" fill="#97B13A"/>
<path d="M11.5862 14.8966H12.4138V15.7241H11.5862V14.8966Z" fill="#97B13A"/>
<path d="M11.5862 11.5862H12.4138V12.4138H11.5862V11.5862Z" fill="#97B13A"/>
<path d="M2.48275 14.8966H3.31033V15.7241H2.48275V14.8966Z" fill="#97B13A"/>
<path d="M14.8965 18.2069H15.7241V19.0345H14.8965V18.2069Z" fill="#97B13A"/>
<path d="M2.48275 11.5862H3.31033V12.4138H2.48275V11.5862Z" fill="#97B13A"/>
<path d="M0.827576 24H5.79309V9.93104H0.827576V24ZM1.65516 11.1724C1.65516 10.9436 1.84013 10.7586 2.06896 10.7586H3.72413C3.95296 10.7586 4.13792 10.9436 4.13792 11.1724V12.8276C4.13792 13.0564 3.95296 13.2414 3.72413 13.2414H2.06896C1.84013 13.2414 1.65516 13.0564 1.65516 12.8276V11.1724ZM1.65516 14.4828C1.65516 14.2539 1.84013 14.069 2.06896 14.069H3.72413C3.95296 14.069 4.13792 14.2539 4.13792 14.4828V16.1379C4.13792 16.3668 3.95296 16.5517 3.72413 16.5517H2.06896C1.84013 16.5517 1.65516 16.3668 1.65516 16.1379V14.4828ZM1.65516 17.7931C1.65516 17.5643 1.84013 17.3793 2.06896 17.3793H3.72413C3.95296 17.3793 4.13792 17.5643 4.13792 17.7931V19.4483C4.13792 19.6771 3.95296 19.8621 3.72413 19.8621H2.06896C1.84013 19.8621 1.65516 19.6771 1.65516 19.4483V17.7931ZM1.65516 21.1034C1.65516 20.8746 1.84013 20.6897 2.06896 20.6897H3.72413C3.95296 20.6897 4.13792 20.8746 4.13792 21.1034V22.7586C4.13792 22.9874 3.95296 23.1724 3.72413 23.1724H2.06896C1.84013 23.1724 1.65516 22.9874 1.65516 22.7586V21.1034Z" fill="#97B13A"/>
<path d="M1.65516 8.27586H5.79309V9.10345H1.65516V8.27586Z" fill="#97B13A"/>
<path d="M2.48275 21.5172H3.31033V22.3448H2.48275V21.5172Z" fill="#97B13A"/>
<path d="M8.27585 11.5862H9.10344V12.4138H8.27585V11.5862Z" fill="#97B13A"/>
<path d="M10.7586 21.5172H13.2414V24H10.7586V21.5172Z" fill="#97B13A"/>
<path d="M8.27585 14.8966H9.10344V15.7241H8.27585V14.8966Z" fill="#97B13A"/>
<path d="M8.27585 18.2069H9.10344V19.0345H8.27585V18.2069Z" fill="#97B13A"/>
<path d="M2.48275 18.2069H3.31033V19.0345H2.48275V18.2069Z" fill="#97B13A"/>
<path d="M13.1843 7.27241L12.3923 9.648C12.336 9.81724 12.1783 9.93104 12 9.93104C11.8216 9.93104 11.6636 9.81724 11.6077 9.648L10.8157 7.27241C10.3382 7.13048 9.90289 6.90621 9.52013 6.62069H6.62068V24H9.93102V21.1034C9.93102 20.8746 10.116 20.6897 10.3448 20.6897H13.6552C13.884 20.6897 14.069 20.8746 14.069 21.1034V24H17.3793V6.62069H14.4799C14.0971 6.90621 13.6622 7.13048 13.1843 7.27241ZM9.93102 19.4483C9.93102 19.6771 9.74606 19.8621 9.51723 19.8621H7.86206C7.63323 19.8621 7.44827 19.6771 7.44827 19.4483V17.7931C7.44827 17.5643 7.63323 17.3793 7.86206 17.3793H9.51723C9.74606 17.3793 9.93102 17.5643 9.93102 17.7931V19.4483ZM9.93102 16.1379C9.93102 16.3668 9.74606 16.5517 9.51723 16.5517H7.86206C7.63323 16.5517 7.44827 16.3668 7.44827 16.1379V14.4828C7.44827 14.2539 7.63323 14.069 7.86206 14.069H9.51723C9.74606 14.069 9.93102 14.2539 9.93102 14.4828V16.1379ZM9.93102 12.8276C9.93102 13.0564 9.74606 13.2414 9.51723 13.2414H7.86206C7.63323 13.2414 7.44827 13.0564 7.44827 12.8276V11.1724C7.44827 10.9436 7.63323 10.7586 7.86206 10.7586H9.51723C9.74606 10.7586 9.93102 10.9436 9.93102 11.1724V12.8276ZM13.2414 19.4483C13.2414 19.6771 13.0564 19.8621 12.8276 19.8621H11.1724C10.9436 19.8621 10.7586 19.6771 10.7586 19.4483V17.7931C10.7586 17.5643 10.9436 17.3793 11.1724 17.3793H12.8276C13.0564 17.3793 13.2414 17.5643 13.2414 17.7931V19.4483ZM13.2414 16.1379C13.2414 16.3668 13.0564 16.5517 12.8276 16.5517H11.1724C10.9436 16.5517 10.7586 16.3668 10.7586 16.1379V14.4828C10.7586 14.2539 10.9436 14.069 11.1724 14.069H12.8276C13.0564 14.069 13.2414 14.2539 13.2414 14.4828V16.1379ZM13.2414 12.8276C13.2414 13.0564 13.0564 13.2414 12.8276 13.2414H11.1724C10.9436 13.2414 10.7586 13.0564 10.7586 12.8276V11.1724C10.7586 10.9436 10.9436 10.7586 11.1724 10.7586H12.8276C13.0564 10.7586 13.2414 10.9436 13.2414 11.1724V12.8276ZM16.5517 19.4483C16.5517 19.6771 16.3667 19.8621 16.1379 19.8621H14.4827C14.2539 19.8621 14.069 19.6771 14.069 19.4483V17.7931C14.069 17.5643 14.2539 17.3793 14.4827 17.3793H16.1379C16.3667 17.3793 16.5517 17.5643 16.5517 17.7931V19.4483ZM16.5517 16.1379C16.5517 16.3668 16.3667 16.5517 16.1379 16.5517H14.4827C14.2539 16.5517 14.069 16.3668 14.069 16.1379V14.4828C14.069 14.2539 14.2539 14.069 14.4827 14.069H16.1379C16.3667 14.069 16.5517 14.2539 16.5517 14.4828V16.1379ZM16.1379 10.7586C16.3667 10.7586 16.5517 10.9436 16.5517 11.1724V12.8276C16.5517 13.0564 16.3667 13.2414 16.1379 13.2414H14.4827C14.2539 13.2414 14.069 13.0564 14.069 12.8276V11.1724C14.069 10.9436 14.2539 10.7586 14.4827 10.7586H16.1379Z" fill="#97B13A"/>
<path d="M20.6896 21.5172H21.5172V22.3448H20.6896V21.5172Z" fill="#97B13A"/>
<path d="M18.2069 8.27586H22.3448V9.10345H18.2069V8.27586Z" fill="#97B13A"/>
<path d="M14.8965 14.8966H15.7241V15.7241H14.8965V14.8966Z" fill="#97B13A"/>
<path d="M20.6896 18.2069H21.5172V19.0345H20.6896V18.2069Z" fill="#97B13A"/>
<path d="M14.8965 11.5862H15.7241V12.4138H14.8965V11.5862Z" fill="#97B13A"/>
<path d="M20.6896 14.8966H21.5172V15.7241H20.6896V14.8966Z" fill="#97B13A"/>
<path d="M11.2332 6.52759C11.3723 6.56069 11.4844 6.66331 11.5299 6.79903L12 8.20883L12.4701 6.79945C12.5152 6.66372 12.6277 6.5611 12.7667 6.528C14.2647 6.17214 15.3103 4.84924 15.3103 3.31034C15.3103 1.4851 13.8252 0 12 0C10.1747 0 8.68964 1.4851 8.68964 3.31034C8.68964 4.84924 9.7353 6.17214 11.2332 6.52759ZM12 0.827586C13.3692 0.827586 14.4827 1.9411 14.4827 3.31034C14.4827 4.67959 13.3692 5.7931 12 5.7931C10.6307 5.7931 9.51723 4.67959 9.51723 3.31034C9.51723 1.9411 10.6307 0.827586 12 0.827586Z" fill="#97B13A"/>
<path d="M20.6896 11.5862H21.5172V12.4138H20.6896V11.5862Z" fill="#97B13A"/>
<path d="M12 4.96552C12.9141 4.96552 13.6552 4.22447 13.6552 3.31034C13.6552 2.39622 12.9141 1.65517 12 1.65517C11.0859 1.65517 10.3448 2.39622 10.3448 3.31034C10.3448 4.22447 11.0859 4.96552 12 4.96552Z" fill="#97B13A"/>
</svg>
