<svg width="20" height="20" viewBox="0 0 20 20" fill="none" xmlns="http://www.w3.org/2000/svg">
<path d="M17.3333 6.66667H12.6667V2C12.6667 1.46957 12.456 0.960859 12.0809 0.585786C11.7058 0.210714 11.1971 0 10.6667 0H2.66667C2.13623 0 1.62753 0.210714 1.25245 0.585786C0.877381 0.960859 0.666667 1.46957 0.666667 2V19.3333C0.666667 19.5101 0.736905 19.6797 0.861929 19.8047C0.986953 19.9298 1.15652 20 1.33333 20H5.66667C5.75507 20 5.83986 19.9649 5.90237 19.9024C5.96488 19.8399 6 19.7551 6 19.6667V16.6854C6 16.3267 6.27583 16.0187 6.63458 16.0008C6.72472 15.9965 6.81481 16.0105 6.89937 16.042C6.98394 16.0735 7.06123 16.1218 7.12657 16.1841C7.1919 16.2463 7.24391 16.3212 7.27945 16.4042C7.31499 16.4871 7.33333 16.5764 7.33333 16.6667V19.6667C7.33333 19.7551 7.36845 19.8399 7.43096 19.9024C7.49348 19.9649 7.57826 20 7.66667 20H18.6667C18.8435 20 19.013 19.9298 19.1381 19.8047C19.2631 19.6797 19.3333 19.5101 19.3333 19.3333V8.66667C19.3333 8.13623 19.1226 7.62753 18.7475 7.25245C18.3725 6.87738 17.8638 6.66667 17.3333 6.66667ZM3.42 17.3279C3.28193 17.346 3.14167 17.3203 3.01891 17.2546C2.89614 17.1889 2.79704 17.0864 2.73551 16.9615C2.67397 16.8366 2.6531 16.6955 2.67581 16.5581C2.69852 16.4208 2.76368 16.2939 2.86214 16.1955C2.9606 16.097 3.08743 16.0319 3.22481 16.0091C3.36219 15.9864 3.50324 16.0073 3.62815 16.0688C3.75306 16.1304 3.85557 16.2295 3.92129 16.3522C3.98701 16.475 4.01264 16.6153 3.99458 16.7533C3.97553 16.899 3.90886 17.0344 3.80495 17.1383C3.70104 17.2422 3.56571 17.3089 3.42 17.3279ZM3.42 13.9946C3.28193 14.0126 3.14167 13.987 3.01891 13.9213C2.89614 13.8556 2.79704 13.7531 2.73551 13.6282C2.67397 13.5032 2.6531 13.3622 2.67581 13.2248C2.69852 13.0874 2.76368 12.9606 2.86214 12.8621C2.9606 12.7637 3.08743 12.6985 3.22481 12.6758C3.36219 12.6531 3.50324 12.674 3.62815 12.7355C3.75306 12.797 3.85557 12.8961 3.92129 13.0189C3.98701 13.1417 4.01264 13.2819 3.99458 13.42C3.97553 13.5657 3.90886 13.701 3.80495 13.805C3.70104 13.9089 3.56571 13.9755 3.42 13.9946ZM3.42 10.6613C3.28193 10.6793 3.14167 10.6537 3.01891 10.588C2.89614 10.5222 2.79704 10.4197 2.73551 10.2948C2.67397 10.1699 2.6531 10.0289 2.67581 9.89148C2.69852 9.75409 2.76368 9.62727 2.86214 9.52881C2.9606 9.43035 3.08743 9.36519 3.22481 9.34247C3.36219 9.31976 3.50324 9.34064 3.62815 9.40217C3.75306 9.46371 3.85557 9.56281 3.92129 9.68557C3.98701 9.80834 4.01264 9.94859 3.99458 10.0867C3.97553 10.2324 3.90886 10.3677 3.80495 10.4716C3.70104 10.5755 3.56571 10.6422 3.42 10.6613ZM3.42 7.32792C3.28193 7.34597 3.14167 7.32034 3.01891 7.25463C2.89614 7.18891 2.79704 7.0864 2.73551 6.96148C2.67397 6.83657 2.6531 6.69552 2.67581 6.55814C2.69852 6.42076 2.76368 6.29394 2.86214 6.19548C2.9606 6.09701 3.08743 6.03185 3.22481 6.00914C3.36219 5.98643 3.50324 6.0073 3.62815 6.06884C3.75306 6.13037 3.85557 6.22948 3.92129 6.35224C3.98701 6.475 4.01264 6.61526 3.99458 6.75333C3.97553 6.89904 3.90886 7.03437 3.80495 7.13828C3.70104 7.24219 3.56571 7.30886 3.42 7.32792ZM3.42 3.99458C3.28193 4.01264 3.14167 3.98701 3.01891 3.92129C2.89614 3.85557 2.79704 3.75306 2.73551 3.62815C2.67397 3.50324 2.6531 3.36219 2.67581 3.22481C2.69852 3.08743 2.76368 2.9606 2.86214 2.86214C2.9606 2.76368 3.08743 2.69852 3.22481 2.67581C3.36219 2.6531 3.50324 2.67397 3.62815 2.73551C3.75306 2.79704 3.85557 2.89614 3.92129 3.01891C3.98701 3.14167 4.01264 3.28193 3.99458 3.42C3.97553 3.56571 3.90886 3.70104 3.80495 3.80495C3.70104 3.90886 3.56571 3.97553 3.42 3.99458ZM6.75333 13.9946C6.61526 14.0126 6.475 13.987 6.35224 13.9213C6.22948 13.8556 6.13037 13.7531 6.06884 13.6282C6.00731 13.5032 5.98643 13.3622 6.00914 13.2248C6.03185 13.0874 6.09701 12.9606 6.19548 12.8621C6.29394 12.7637 6.42076 12.6985 6.55814 12.6758C6.69553 12.6531 6.83657 12.674 6.96148 12.7355C7.0864 12.797 7.18891 12.8961 7.25463 13.0189C7.32035 13.1417 7.34597 13.2819 7.32792 13.42C7.30886 13.5657 7.24219 13.701 7.13828 13.805C7.03437 13.9089 6.89904 13.9755 6.75333 13.9946ZM6.75333 10.6613C6.61526 10.6793 6.475 10.6537 6.35224 10.588C6.22948 10.5222 6.13037 10.4197 6.06884 10.2948C6.00731 10.1699 5.98643 10.0289 6.00914 9.89148C6.03185 9.75409 6.09701 9.62727 6.19548 9.52881C6.29394 9.43035 6.42076 9.36519 6.55814 9.34247C6.69553 9.31976 6.83657 9.34064 6.96148 9.40217C7.0864 9.46371 7.18891 9.56281 7.25463 9.68557C7.32035 9.80834 7.34597 9.94859 7.32792 10.0867C7.30886 10.2324 7.24219 10.3677 7.13828 10.4716C7.03437 10.5755 6.89904 10.6422 6.75333 10.6613ZM6.75333 7.32792C6.61526 7.34597 6.475 7.32034 6.35224 7.25463C6.22948 7.18891 6.13037 7.0864 6.06884 6.96148C6.00731 6.83657 5.98643 6.69552 6.00914 6.55814C6.03185 6.42076 6.09701 6.29394 6.19548 6.19548C6.29394 6.09701 6.42076 6.03185 6.55814 6.00914C6.69553 5.98643 6.83657 6.0073 6.96148 6.06884C7.0864 6.13037 7.18891 6.22948 7.25463 6.35224C7.32035 6.475 7.34597 6.61526 7.32792 6.75333C7.30886 6.89904 7.24219 7.03437 7.13828 7.13828C7.03437 7.24219 6.89904 7.30886 6.75333 7.32792ZM6.75333 3.99458C6.61526 4.01264 6.475 3.98701 6.35224 3.92129C6.22948 3.85557 6.13037 3.75306 6.06884 3.62815C6.00731 3.50324 5.98643 3.36219 6.00914 3.22481C6.03185 3.08743 6.09701 2.9606 6.19548 2.86214C6.29394 2.76368 6.42076 2.69852 6.55814 2.67581C6.69553 2.6531 6.83657 2.67397 6.96148 2.73551C7.0864 2.79704 7.18891 2.89614 7.25463 3.01891C7.32035 3.14167 7.34597 3.28193 7.32792 3.42C7.30886 3.56571 7.24219 3.70104 7.13828 3.80495C7.03437 3.90886 6.89904 3.97553 6.75333 3.99458ZM10.0867 17.3279C9.9486 17.346 9.80834 17.3203 9.68557 17.2546C9.56281 17.1889 9.46371 17.0864 9.40217 16.9615C9.34064 16.8366 9.31976 16.6955 9.34247 16.5581C9.36519 16.4208 9.43035 16.2939 9.52881 16.1955C9.62727 16.097 9.75409 16.0319 9.89148 16.0091C10.0289 15.9864 10.1699 16.0073 10.2948 16.0688C10.4197 16.1304 10.5222 16.2295 10.588 16.3522C10.6537 16.475 10.6793 16.6153 10.6612 16.7533C10.6422 16.899 10.5755 17.0344 10.4716 17.1383C10.3677 17.2422 10.2324 17.3089 10.0867 17.3279ZM10.0867 13.9946C9.9486 14.0126 9.80834 13.987 9.68557 13.9213C9.56281 13.8556 9.46371 13.7531 9.40217 13.6282C9.34064 13.5032 9.31976 13.3622 9.34247 13.2248C9.36519 13.0874 9.43035 12.9606 9.52881 12.8621C9.62727 12.7637 9.75409 12.6985 9.89148 12.6758C10.0289 12.6531 10.1699 12.674 10.2948 12.7355C10.4197 12.797 10.5222 12.8961 10.588 13.0189C10.6537 13.1417 10.6793 13.2819 10.6612 13.42C10.6422 13.5657 10.5755 13.701 10.4716 13.805C10.3677 13.9089 10.2324 13.9755 10.0867 13.9946ZM10.0867 10.6613C9.9486 10.6793 9.80834 10.6537 9.68557 10.588C9.56281 10.5222 9.46371 10.4197 9.40217 10.2948C9.34064 10.1699 9.31976 10.0289 9.34247 9.89148C9.36519 9.75409 9.43035 9.62727 9.52881 9.52881C9.62727 9.43035 9.75409 9.36519 9.89148 9.34247C10.0289 9.31976 10.1699 9.34064 10.2948 9.40217C10.4197 9.46371 10.5222 9.56281 10.588 9.68557C10.6537 9.80834 10.6793 9.94859 10.6612 10.0867C10.6422 10.2324 10.5755 10.3677 10.4716 10.4716C10.3677 10.5755 10.2324 10.6422 10.0867 10.6613ZM10.0867 7.32792C9.9486 7.34597 9.80834 7.32034 9.68557 7.25463C9.56281 7.18891 9.46371 7.0864 9.40217 6.96148C9.34064 6.83657 9.31976 6.69552 9.34247 6.55814C9.36519 6.42076 9.43035 6.29394 9.52881 6.19548C9.62727 6.09701 9.75409 6.03185 9.89148 6.00914C10.0289 5.98643 10.1699 6.0073 10.2948 6.06884C10.4197 6.13037 10.5222 6.22948 10.588 6.35224C10.6537 6.475 10.6793 6.61526 10.6612 6.75333C10.6422 6.89904 10.5755 7.03437 10.4716 7.13828C10.3677 7.24219 10.2324 7.30886 10.0867 7.32792ZM10.0867 3.99458C9.9486 4.01264 9.80834 3.98701 9.68557 3.92129C9.56281 3.85557 9.46371 3.75306 9.40217 3.62815C9.34064 3.50324 9.31976 3.36219 9.34247 3.22481C9.36519 3.08743 9.43035 2.9606 9.52881 2.86214C9.62727 2.76368 9.75409 2.69852 9.89148 2.67581C10.0289 2.6531 10.1699 2.67397 10.2948 2.73551C10.4197 2.79704 10.5222 2.89614 10.588 3.01891C10.6537 3.14167 10.6793 3.28193 10.6612 3.42C10.6422 3.56571 10.5755 3.70104 10.4716 3.80495C10.3677 3.90886 10.2324 3.97553 10.0867 3.99458ZM17.8333 18.6667H12.6667V8H17.3333C17.5101 8 17.6797 8.07024 17.8047 8.19526C17.9298 8.32029 18 8.48985 18 8.66667V18.5C18 18.5442 17.9824 18.5866 17.9512 18.6179C17.9199 18.6491 17.8775 18.6667 17.8333 18.6667Z" fill="#FECE42"/>
<path d="M16 15.9999C15.8682 15.9999 15.7393 16.039 15.6296 16.1122C15.52 16.1855 15.4345 16.2896 15.3841 16.4114C15.3336 16.5333 15.3204 16.6673 15.3462 16.7966C15.3719 16.9259 15.4354 17.0447 15.5286 17.138C15.6218 17.2312 15.7406 17.2947 15.8699 17.3204C15.9993 17.3461 16.1333 17.3329 16.2551 17.2825C16.3769 17.232 16.4811 17.1466 16.5543 17.0369C16.6276 16.9273 16.6667 16.7984 16.6667 16.6666C16.6667 16.4897 16.5964 16.3202 16.4714 16.1952C16.3464 16.0701 16.1768 15.9999 16 15.9999Z" fill="#FECE42"/>
<path d="M16 12.6667C15.8682 12.6667 15.7393 12.7058 15.6296 12.7791C15.52 12.8523 15.4345 12.9565 15.3841 13.0783C15.3336 13.2001 15.3204 13.3341 15.3462 13.4635C15.3719 13.5928 15.4354 13.7116 15.5286 13.8048C15.6218 13.898 15.7406 13.9615 15.8699 13.9873C15.9993 14.013 16.1333 13.9998 16.2551 13.9493C16.3769 13.8989 16.4811 13.8134 16.5543 13.7038C16.6276 13.5942 16.6667 13.4653 16.6667 13.3334C16.6667 13.1566 16.5964 12.987 16.4714 12.862C16.3464 12.737 16.1768 12.6667 16 12.6667Z" fill="#FECE42"/>
<path d="M16 9.33316C15.8682 9.33316 15.7393 9.37226 15.6296 9.44552C15.52 9.51877 15.4345 9.62289 15.3841 9.74471C15.3336 9.86652 15.3204 10.0006 15.3462 10.1299C15.3719 10.2592 15.4354 10.378 15.5286 10.4712C15.6218 10.5645 15.7406 10.628 15.8699 10.6537C15.9993 10.6794 16.1333 10.6662 16.2551 10.6157C16.3769 10.5653 16.4811 10.4798 16.5543 10.3702C16.6276 10.2606 16.6667 10.1317 16.6667 9.99983C16.6667 9.82302 16.5964 9.65345 16.4714 9.52843C16.3464 9.4034 16.1768 9.33316 16 9.33316Z" fill="#FECE42"/>
<path d="M13.3334 15.9999C13.2015 15.9999 13.0726 16.039 12.963 16.1122C12.8533 16.1855 12.7679 16.2896 12.7174 16.4114C12.667 16.5333 12.6538 16.6673 12.6795 16.7966C12.7052 16.9259 12.7687 17.0447 12.862 17.138C12.9552 17.2312 13.074 17.2947 13.2033 17.3204C13.3326 17.3461 13.4667 17.3329 13.5885 17.2825C13.7103 17.232 13.8144 17.1466 13.8877 17.0369C13.9609 16.9273 14 16.7984 14 16.6666C14 16.4897 13.9298 16.3202 13.8048 16.1952C13.6797 16.0701 13.5102 15.9999 13.3334 15.9999Z" fill="#FECE42"/>
<path d="M13.3334 12.6667C13.2015 12.6667 13.0726 12.7058 12.963 12.7791C12.8533 12.8523 12.7679 12.9565 12.7174 13.0783C12.667 13.2001 12.6538 13.3341 12.6795 13.4635C12.7052 13.5928 12.7687 13.7116 12.862 13.8048C12.9552 13.898 13.074 13.9615 13.2033 13.9873C13.3326 14.013 13.4667 13.9998 13.5885 13.9493C13.7103 13.8989 13.8144 13.8134 13.8877 13.7038C13.9609 13.5942 14 13.4653 14 13.3334C14 13.1566 13.9298 12.987 13.8048 12.862C13.6797 12.737 13.5102 12.6667 13.3334 12.6667Z" fill="#FECE42"/>
<path d="M13.3334 9.33316C13.2015 9.33316 13.0726 9.37226 12.963 9.44552C12.8533 9.51877 12.7679 9.62289 12.7174 9.74471C12.667 9.86652 12.6538 10.0006 12.6795 10.1299C12.7052 10.2592 12.7687 10.378 12.862 10.4712C12.9552 10.5645 13.074 10.628 13.2033 10.6537C13.3326 10.6794 13.4667 10.6662 13.5885 10.6157C13.7103 10.5653 13.8144 10.4798 13.8877 10.3702C13.9609 10.2606 14 10.1317 14 9.99983C14 9.82302 13.9298 9.65345 13.8048 9.52843C13.6797 9.4034 13.5102 9.33316 13.3334 9.33316Z" fill="#FECE42"/>
</svg>
