<svg width="8" height="12" viewBox="0 0 8 12" fill="none" xmlns="http://www.w3.org/2000/svg">
<path d="M1.33054 4.09692L3.14568 2.77837C3.35117 2.62425 3.59947 2.5472 3.85633 2.55576C4.16295 2.56409 4.45942 2.66742 4.70481 2.85146C4.95019 3.0355 5.13239 3.29118 5.22625 3.5832C5.33756 3.92568 5.43174 4.13973 5.51736 4.2596C5.78141 4.61167 6.12405 4.89719 6.51797 5.09341C6.74098 5.20449 6.97693 5.28521 7.21955 5.33411C7.52811 5.39629 7.78629 5.64545 7.78629 5.96021C7.78629 6.27415 7.53063 6.53289 7.21989 6.48825C6.82992 6.43224 6.44942 6.31825 6.09124 6.14916C5.56122 5.89896 5.09327 5.53433 4.72109 5.08155L4.32724 7.32479L5.49167 8.30942L6.56329 11.2347C6.67134 11.5296 6.52011 11.8563 6.22532 11.9648C5.92929 12.0738 5.60111 11.9212 5.4935 11.6247L4.53273 8.97726L2.60628 7.3676C2.44939 7.23976 2.3294 7.07242 2.25868 6.88281C2.18795 6.69319 2.16903 6.48815 2.20386 6.28879L2.49497 4.65345L2.10968 4.92743L1.24407 6.12692C1.06014 6.38179 0.704392 6.43924 0.449589 6.25522C0.194057 6.07067 0.137265 5.71354 0.322944 5.45883L1.32198 4.08836L1.33054 4.09692ZM4.66972 2.27321C4.51246 2.28689 4.35407 2.26772 4.20461 2.21691C4.05515 2.16611 3.91788 2.08479 3.80152 1.97812C3.68517 1.87144 3.59226 1.74173 3.5287 1.59723C3.46515 1.45274 3.43233 1.2966 3.43233 1.13875C3.43233 0.980889 3.46515 0.824755 3.5287 0.680258C3.59226 0.53576 3.68517 0.406056 3.80152 0.299378C3.91788 0.1927 4.05515 0.111379 4.20461 0.0605784C4.35407 0.00977748 4.51246 -0.00939403 4.66972 0.0042811C4.95359 0.028965 5.21788 0.159172 5.41044 0.369199C5.603 0.579226 5.70982 0.853809 5.70982 1.13875C5.70982 1.42368 5.603 1.69827 5.41044 1.90829C5.21788 2.11832 4.95359 2.24853 4.66972 2.27321ZM2.98301 9.74784L1.52343 11.4884C1.32215 11.7284 0.964604 11.7603 0.72395 11.5598C0.482271 11.3584 0.450128 10.999 0.652233 10.7579L1.97269 9.18275L2.40079 7.94982L3.41967 8.79746L2.98301 9.74784Z" fill="#444444"/>
</svg>
