<svg width="19" height="20" viewBox="0 0 19 20" fill="none" xmlns="http://www.w3.org/2000/svg">
<path d="M16.8334 6.66667H12.1667V2C12.1667 1.46957 11.956 0.960859 11.5809 0.585786C11.2058 0.210714 10.6971 0 10.1667 0H2.16669C1.63625 0 1.12755 0.210714 0.752474 0.585786C0.377401 0.960859 0.166687 1.46957 0.166687 2V19.3333C0.166687 19.5101 0.236925 19.6797 0.361949 19.8047C0.486973 19.9298 0.656543 20 0.833354 20H5.16669C5.25509 20 5.33988 19.9649 5.40239 19.9024C5.4649 19.8399 5.50002 19.7551 5.50002 19.6667V16.6854C5.50002 16.3267 5.77585 16.0187 6.1346 16.0008C6.22474 15.9965 6.31483 16.0105 6.39939 16.042C6.48396 16.0735 6.56125 16.1218 6.62659 16.1841C6.69192 16.2463 6.74393 16.3212 6.77947 16.4042C6.81501 16.4871 6.83335 16.5764 6.83335 16.6667V19.6667C6.83335 19.7551 6.86847 19.8399 6.93098 19.9024C6.9935 19.9649 7.07828 20 7.16669 20H18.1667C18.3435 20 18.5131 19.9298 18.6381 19.8047C18.7631 19.6797 18.8334 19.5101 18.8334 19.3333V8.66667C18.8334 8.13623 18.6226 7.62753 18.2476 7.25245C17.8725 6.87738 17.3638 6.66667 16.8334 6.66667ZM2.92002 17.3279C2.78195 17.346 2.64169 17.3203 2.51893 17.2546C2.39616 17.1889 2.29706 17.0864 2.23553 16.9615C2.17399 16.8366 2.15312 16.6955 2.17583 16.5581C2.19854 16.4208 2.2637 16.2939 2.36216 16.1955C2.46062 16.097 2.58745 16.0319 2.72483 16.0091C2.86221 15.9864 3.00326 16.0073 3.12817 16.0688C3.25308 16.1304 3.35559 16.2295 3.42131 16.3522C3.48703 16.475 3.51266 16.6153 3.4946 16.7533C3.47555 16.899 3.40888 17.0344 3.30497 17.1383C3.20106 17.2422 3.06573 17.3089 2.92002 17.3279ZM2.92002 13.9946C2.78195 14.0126 2.64169 13.987 2.51893 13.9213C2.39616 13.8556 2.29706 13.7531 2.23553 13.6282C2.17399 13.5032 2.15312 13.3622 2.17583 13.2248C2.19854 13.0874 2.2637 12.9606 2.36216 12.8621C2.46062 12.7637 2.58745 12.6985 2.72483 12.6758C2.86221 12.6531 3.00326 12.674 3.12817 12.7355C3.25308 12.797 3.35559 12.8961 3.42131 13.0189C3.48703 13.1417 3.51266 13.2819 3.4946 13.42C3.47555 13.5657 3.40888 13.701 3.30497 13.805C3.20106 13.9089 3.06573 13.9755 2.92002 13.9946ZM2.92002 10.6613C2.78195 10.6793 2.64169 10.6537 2.51893 10.588C2.39616 10.5222 2.29706 10.4197 2.23553 10.2948C2.17399 10.1699 2.15312 10.0289 2.17583 9.89148C2.19854 9.75409 2.2637 9.62727 2.36216 9.52881C2.46062 9.43035 2.58745 9.36519 2.72483 9.34247C2.86221 9.31976 3.00326 9.34064 3.12817 9.40217C3.25308 9.46371 3.35559 9.56281 3.42131 9.68557C3.48703 9.80834 3.51266 9.94859 3.4946 10.0867C3.47555 10.2324 3.40888 10.3677 3.30497 10.4716C3.20106 10.5755 3.06573 10.6422 2.92002 10.6613ZM2.92002 7.32792C2.78195 7.34597 2.64169 7.32034 2.51893 7.25463C2.39616 7.18891 2.29706 7.0864 2.23553 6.96148C2.17399 6.83657 2.15312 6.69552 2.17583 6.55814C2.19854 6.42076 2.2637 6.29394 2.36216 6.19548C2.46062 6.09701 2.58745 6.03185 2.72483 6.00914C2.86221 5.98643 3.00326 6.0073 3.12817 6.06884C3.25308 6.13037 3.35559 6.22948 3.42131 6.35224C3.48703 6.475 3.51266 6.61526 3.4946 6.75333C3.47555 6.89904 3.40888 7.03437 3.30497 7.13828C3.20106 7.24219 3.06573 7.30886 2.92002 7.32792ZM2.92002 3.99458C2.78195 4.01264 2.64169 3.98701 2.51893 3.92129C2.39616 3.85557 2.29706 3.75306 2.23553 3.62815C2.17399 3.50324 2.15312 3.36219 2.17583 3.22481C2.19854 3.08743 2.2637 2.9606 2.36216 2.86214C2.46062 2.76368 2.58745 2.69852 2.72483 2.67581C2.86221 2.6531 3.00326 2.67397 3.12817 2.73551C3.25308 2.79704 3.35559 2.89614 3.42131 3.01891C3.48703 3.14167 3.51266 3.28193 3.4946 3.42C3.47555 3.56571 3.40888 3.70104 3.30497 3.80495C3.20106 3.90886 3.06573 3.97553 2.92002 3.99458ZM6.25335 13.9946C6.11528 14.0126 5.97502 13.987 5.85226 13.9213C5.7295 13.8556 5.63039 13.7531 5.56886 13.6282C5.50733 13.5032 5.48645 13.3622 5.50916 13.2248C5.53187 13.0874 5.59703 12.9606 5.6955 12.8621C5.79396 12.7637 5.92078 12.6985 6.05816 12.6758C6.19555 12.6531 6.33659 12.674 6.4615 12.7355C6.58642 12.797 6.68893 12.8961 6.75465 13.0189C6.82037 13.1417 6.84599 13.2819 6.82794 13.42C6.80888 13.5657 6.74221 13.701 6.6383 13.805C6.53439 13.9089 6.39906 13.9755 6.25335 13.9946ZM6.25335 10.6613C6.11528 10.6793 5.97502 10.6537 5.85226 10.588C5.7295 10.5222 5.63039 10.4197 5.56886 10.2948C5.50733 10.1699 5.48645 10.0289 5.50916 9.89148C5.53187 9.75409 5.59703 9.62727 5.6955 9.52881C5.79396 9.43035 5.92078 9.36519 6.05816 9.34247C6.19555 9.31976 6.33659 9.34064 6.4615 9.40217C6.58642 9.46371 6.68893 9.56281 6.75465 9.68557C6.82037 9.80834 6.84599 9.94859 6.82794 10.0867C6.80888 10.2324 6.74221 10.3677 6.6383 10.4716C6.53439 10.5755 6.39906 10.6422 6.25335 10.6613ZM6.25335 7.32792C6.11528 7.34597 5.97502 7.32034 5.85226 7.25463C5.7295 7.18891 5.63039 7.0864 5.56886 6.96148C5.50733 6.83657 5.48645 6.69552 5.50916 6.55814C5.53187 6.42076 5.59703 6.29394 5.6955 6.19548C5.79396 6.09701 5.92078 6.03185 6.05816 6.00914C6.19555 5.98643 6.33659 6.0073 6.4615 6.06884C6.58642 6.13037 6.68893 6.22948 6.75465 6.35224C6.82037 6.475 6.84599 6.61526 6.82794 6.75333C6.80888 6.89904 6.74221 7.03437 6.6383 7.13828C6.53439 7.24219 6.39906 7.30886 6.25335 7.32792ZM6.25335 3.99458C6.11528 4.01264 5.97502 3.98701 5.85226 3.92129C5.7295 3.85557 5.63039 3.75306 5.56886 3.62815C5.50733 3.50324 5.48645 3.36219 5.50916 3.22481C5.53187 3.08743 5.59703 2.9606 5.6955 2.86214C5.79396 2.76368 5.92078 2.69852 6.05816 2.67581C6.19555 2.6531 6.33659 2.67397 6.4615 2.73551C6.58642 2.79704 6.68893 2.89614 6.75465 3.01891C6.82037 3.14167 6.84599 3.28193 6.82794 3.42C6.80888 3.56571 6.74221 3.70104 6.6383 3.80495C6.53439 3.90886 6.39906 3.97553 6.25335 3.99458ZM9.58669 17.3279C9.44862 17.346 9.30836 17.3203 9.18559 17.2546C9.06283 17.1889 8.96373 17.0864 8.90219 16.9615C8.84066 16.8366 8.81978 16.6955 8.84249 16.5581C8.86521 16.4208 8.93037 16.2939 9.02883 16.1955C9.12729 16.097 9.25411 16.0319 9.3915 16.0091C9.52888 15.9864 9.66992 16.0073 9.79484 16.0688C9.91975 16.1304 10.0223 16.2295 10.088 16.3522C10.1537 16.475 10.1793 16.6153 10.1613 16.7533C10.1422 16.899 10.0755 17.0344 9.97164 17.1383C9.86773 17.2422 9.7324 17.3089 9.58669 17.3279ZM9.58669 13.9946C9.44862 14.0126 9.30836 13.987 9.18559 13.9213C9.06283 13.8556 8.96373 13.7531 8.90219 13.6282C8.84066 13.5032 8.81978 13.3622 8.84249 13.2248C8.86521 13.0874 8.93037 12.9606 9.02883 12.8621C9.12729 12.7637 9.25411 12.6985 9.3915 12.6758C9.52888 12.6531 9.66992 12.674 9.79484 12.7355C9.91975 12.797 10.0223 12.8961 10.088 13.0189C10.1537 13.1417 10.1793 13.2819 10.1613 13.42C10.1422 13.5657 10.0755 13.701 9.97164 13.805C9.86773 13.9089 9.7324 13.9755 9.58669 13.9946ZM9.58669 10.6613C9.44862 10.6793 9.30836 10.6537 9.18559 10.588C9.06283 10.5222 8.96373 10.4197 8.90219 10.2948C8.84066 10.1699 8.81978 10.0289 8.84249 9.89148C8.86521 9.75409 8.93037 9.62727 9.02883 9.52881C9.12729 9.43035 9.25411 9.36519 9.3915 9.34247C9.52888 9.31976 9.66992 9.34064 9.79484 9.40217C9.91975 9.46371 10.0223 9.56281 10.088 9.68557C10.1537 9.80834 10.1793 9.94859 10.1613 10.0867C10.1422 10.2324 10.0755 10.3677 9.97164 10.4716C9.86773 10.5755 9.7324 10.6422 9.58669 10.6613ZM9.58669 7.32792C9.44862 7.34597 9.30836 7.32034 9.18559 7.25463C9.06283 7.18891 8.96373 7.0864 8.90219 6.96148C8.84066 6.83657 8.81978 6.69552 8.84249 6.55814C8.86521 6.42076 8.93037 6.29394 9.02883 6.19548C9.12729 6.09701 9.25411 6.03185 9.3915 6.00914C9.52888 5.98643 9.66992 6.0073 9.79484 6.06884C9.91975 6.13037 10.0223 6.22948 10.088 6.35224C10.1537 6.475 10.1793 6.61526 10.1613 6.75333C10.1422 6.89904 10.0755 7.03437 9.97164 7.13828C9.86773 7.24219 9.7324 7.30886 9.58669 7.32792ZM9.58669 3.99458C9.44862 4.01264 9.30836 3.98701 9.18559 3.92129C9.06283 3.85557 8.96373 3.75306 8.90219 3.62815C8.84066 3.50324 8.81978 3.36219 8.84249 3.22481C8.86521 3.08743 8.93037 2.9606 9.02883 2.86214C9.12729 2.76368 9.25411 2.69852 9.3915 2.67581C9.52888 2.6531 9.66992 2.67397 9.79484 2.73551C9.91975 2.79704 10.0223 2.89614 10.088 3.01891C10.1537 3.14167 10.1793 3.28193 10.1613 3.42C10.1422 3.56571 10.0755 3.70104 9.97164 3.80495C9.86773 3.90886 9.7324 3.97553 9.58669 3.99458ZM17.3334 18.6667H12.1667V8H16.8334C17.0102 8 17.1797 8.07024 17.3048 8.19526C17.4298 8.32029 17.5 8.48985 17.5 8.66667V18.5C17.5 18.5442 17.4825 18.5866 17.4512 18.6179C17.4199 18.6491 17.3776 18.6667 17.3334 18.6667Z" fill="#97B13A"/>
<path d="M15.5 15.9999C15.3682 15.9999 15.2393 16.039 15.1296 16.1122C15.02 16.1855 14.9346 16.2896 14.8841 16.4114C14.8337 16.5333 14.8204 16.6673 14.8462 16.7966C14.8719 16.9259 14.9354 17.0447 15.0286 17.138C15.1219 17.2312 15.2406 17.2947 15.37 17.3204C15.4993 17.3461 15.6333 17.3329 15.7552 17.2825C15.877 17.232 15.9811 17.1466 16.0543 17.0369C16.1276 16.9273 16.1667 16.7984 16.1667 16.6666C16.1667 16.4897 16.0965 16.3202 15.9714 16.1952C15.8464 16.0701 15.6768 15.9999 15.5 15.9999Z" fill="#97B13A"/>
<path d="M15.5 12.6667C15.3682 12.6667 15.2393 12.7058 15.1296 12.7791C15.02 12.8523 14.9346 12.9565 14.8841 13.0783C14.8337 13.2001 14.8204 13.3341 14.8462 13.4635C14.8719 13.5928 14.9354 13.7116 15.0286 13.8048C15.1219 13.898 15.2406 13.9615 15.37 13.9873C15.4993 14.013 15.6333 13.9998 15.7552 13.9493C15.877 13.8989 15.9811 13.8134 16.0543 13.7038C16.1276 13.5942 16.1667 13.4653 16.1667 13.3334C16.1667 13.1566 16.0965 12.987 15.9714 12.862C15.8464 12.737 15.6768 12.6667 15.5 12.6667Z" fill="#97B13A"/>
<path d="M15.5 9.33316C15.3682 9.33316 15.2393 9.37226 15.1296 9.44552C15.02 9.51877 14.9346 9.62289 14.8841 9.74471C14.8337 9.86652 14.8204 10.0006 14.8462 10.1299C14.8719 10.2592 14.9354 10.378 15.0286 10.4712C15.1219 10.5645 15.2406 10.628 15.37 10.6537C15.4993 10.6794 15.6333 10.6662 15.7552 10.6157C15.877 10.5653 15.9811 10.4798 16.0543 10.3702C16.1276 10.2606 16.1667 10.1317 16.1667 9.99983C16.1667 9.82302 16.0965 9.65345 15.9714 9.52843C15.8464 9.4034 15.6768 9.33316 15.5 9.33316Z" fill="#97B13A"/>
<path d="M12.8334 15.9999C12.7015 15.9999 12.5726 16.039 12.463 16.1122C12.3534 16.1855 12.2679 16.2896 12.2175 16.4114C12.167 16.5333 12.1538 16.6673 12.1795 16.7966C12.2052 16.9259 12.2687 17.0447 12.362 17.138C12.4552 17.2312 12.574 17.2947 12.7033 17.3204C12.8326 17.3461 12.9667 17.3329 13.0885 17.2825C13.2103 17.232 13.3144 17.1466 13.3877 17.0369C13.4609 16.9273 13.5 16.7984 13.5 16.6666C13.5 16.4897 13.4298 16.3202 13.3048 16.1952C13.1798 16.0701 13.0102 15.9999 12.8334 15.9999Z" fill="#97B13A"/>
<path d="M12.8334 12.6667C12.7015 12.6667 12.5726 12.7058 12.463 12.7791C12.3534 12.8523 12.2679 12.9565 12.2175 13.0783C12.167 13.2001 12.1538 13.3341 12.1795 13.4635C12.2052 13.5928 12.2687 13.7116 12.362 13.8048C12.4552 13.898 12.574 13.9615 12.7033 13.9873C12.8326 14.013 12.9667 13.9998 13.0885 13.9493C13.2103 13.8989 13.3144 13.8134 13.3877 13.7038C13.4609 13.5942 13.5 13.4653 13.5 13.3334C13.5 13.1566 13.4298 12.987 13.3048 12.862C13.1798 12.737 13.0102 12.6667 12.8334 12.6667Z" fill="#97B13A"/>
<path d="M12.8334 9.33316C12.7015 9.33316 12.5726 9.37226 12.463 9.44552C12.3534 9.51877 12.2679 9.62289 12.2175 9.74471C12.167 9.86652 12.1538 10.0006 12.1795 10.1299C12.2052 10.2592 12.2687 10.378 12.362 10.4712C12.4552 10.5645 12.574 10.628 12.7033 10.6537C12.8326 10.6794 12.9667 10.6662 13.0885 10.6157C13.2103 10.5653 13.3144 10.4798 13.3877 10.3702C13.4609 10.2606 13.5 10.1317 13.5 9.99983C13.5 9.82302 13.4298 9.65345 13.3048 9.52843C13.1798 9.4034 13.0102 9.33316 12.8334 9.33316Z" fill="#97B13A"/>
</svg>
