<svg width="18" height="20" viewBox="0 0 18 20" fill="none" xmlns="http://www.w3.org/2000/svg">
<path d="M14.8542 14.1458L9 20L3.14578 14.1458C1.98617 12.9876 1.19615 11.5115 0.875663 9.90425C0.555177 8.29697 0.718631 6.63075 1.34534 5.1164C1.97206 3.60205 3.03387 2.30761 4.39643 1.39687C5.759 0.486124 7.36109 0 9 0C10.6389 0 12.241 0.486124 13.6036 1.39687C14.9661 2.30761 16.0279 3.60205 16.6547 5.1164C17.2814 6.63075 17.4448 8.29697 17.1243 9.90425C16.8039 11.5115 16.0138 12.9876 14.8542 14.1458ZM9 10.1251C9.2535 10.1448 9.50833 10.1118 9.74848 10.0283C9.98864 9.94483 10.2089 9.81258 10.3955 9.63988C10.5822 9.46718 10.731 9.25777 10.8329 9.02479C10.9347 8.79181 10.9873 8.5403 10.9873 8.28604C10.9873 8.03178 10.9347 7.78027 10.8329 7.54729C10.731 7.31431 10.5822 7.1049 10.3955 6.9322C10.2089 6.7595 9.98864 6.62725 9.74848 6.54374C9.50833 6.46023 9.2535 6.42727 9 6.44693C8.53686 6.48285 8.10432 6.69219 7.78879 7.03313C7.47327 7.37407 7.298 7.8215 7.298 8.28604C7.298 8.75058 7.47327 9.19801 7.78879 9.53895C8.10432 9.87989 8.53686 10.0892 9 10.1251Z" fill="#443571"/>
</svg>
