<svg width="16" height="16" viewBox="0 0 16 16" fill="none" xmlns="http://www.w3.org/2000/svg">
<g opacity="0.5">
<path fill-rule="evenodd" clip-rule="evenodd" d="M8 15C11.866 15 15 11.866 15 8C15 4.13401 11.866 1 8 1C4.13401 1 1 4.13401 1 8C1 11.866 4.13401 15 8 15ZM8 16C12.4183 16 16 12.4183 16 8C16 3.58172 12.4183 0 8 0C3.58172 0 0 3.58172 0 8C0 12.4183 3.58172 16 8 16Z" fill="#443571"/>
<path d="M9.60465 6.71459C9.60465 6.99366 9.51163 7.27273 9.32558 7.5518C9.14799 7.82241 8.88161 8.05074 8.52643 8.23679C8.1797 8.41438 7.75264 8.50317 7.24524 8.50317H6.89006L7.14376 10.7357H8.22199L8.2981 9.40381C8.76321 9.35307 9.19873 9.2093 9.60465 8.97252C10.019 8.73573 10.3531 8.42283 10.6068 8.03383C10.8689 7.64482 11 7.20507 11 6.71459C11 6.30867 10.9197 5.9408 10.759 5.61099C10.6068 5.28118 10.3911 4.99789 10.1121 4.7611C9.84144 4.51586 9.52854 4.32981 9.17336 4.20296C8.82664 4.06765 8.45032 4 8.0444 4C7.54545 4 7.10994 4.06343 6.73784 4.19027C6.37421 4.31712 6.05285 4.49894 5.77378 4.73573C5.49471 4.96406 5.23679 5.23467 5 5.54757L6.0148 6.29598C6.22622 5.95772 6.4926 5.69556 6.81395 5.50951C7.13531 5.31501 7.50317 5.21776 7.91755 5.21776C8.26427 5.21776 8.56448 5.27696 8.81818 5.39535C9.07188 5.51374 9.26639 5.68288 9.40169 5.90275C9.537 6.12262 9.60465 6.39323 9.60465 6.71459ZM6.80127 12.4482C6.80127 12.6765 6.88583 12.8753 7.05497 13.0444C7.23256 13.2135 7.4482 13.2981 7.7019 13.2981C7.9556 13.2981 8.16702 13.2135 8.33615 13.0444C8.50529 12.8753 8.58985 12.6765 8.58985 12.4482C8.58985 12.2199 8.50529 12.0254 8.33615 11.8647C8.16702 11.6956 7.9556 11.611 7.7019 11.611C7.4482 11.611 7.23256 11.6956 7.05497 11.8647C6.88583 12.0254 6.80127 12.2199 6.80127 12.4482Z" fill="#443571"/>
</g>
</svg>
