<svg width="24" height="24" viewBox="0 0 24 24" fill="none" xmlns="http://www.w3.org/2000/svg">
<path d="M11.7656 2.96194V2.57812C11.7656 1.15655 10.6091 0 9.1875 0H6.375C4.95342 0 3.79688 1.15655 3.79688 2.57812V18.0272C2.97848 18.3174 2.39062 19.099 2.39062 20.0156V22.5938H1.6875C1.29919 22.5938 0.984375 22.9086 0.984375 23.2969C0.984375 23.6852 1.29919 24 1.6875 24H7.3125C7.70081 24 8.01562 23.6852 8.01562 23.2969C8.01562 22.9086 7.70081 22.5938 7.3125 22.5938H6.60938V20.0156C6.60938 19.099 6.02152 18.3174 5.20312 18.0272V2.57812C5.20312 1.93195 5.72883 1.40625 6.375 1.40625H9.1875C9.83367 1.40625 10.3594 1.93195 10.3594 2.57812V2.96194C8.23683 3.30009 6.60938 5.14313 6.60938 7.35938C6.60938 7.74769 6.92419 8.0625 7.3125 8.0625H8.02552C8.1457 9.63333 9.46139 10.875 11.0625 10.875C12.6636 10.875 13.9792 9.63333 14.0995 8.0625H14.8125C15.2008 8.0625 15.5156 7.74769 15.5156 7.35938C15.5156 5.14313 13.8882 3.30009 11.7656 2.96194ZM5.20312 22.5938H3.79688V20.0156C3.79688 19.6279 4.1123 19.3125 4.5 19.3125C4.8877 19.3125 5.20312 19.6279 5.20312 20.0156V22.5938ZM11.0625 9.46875C10.2375 9.46875 9.55298 8.85647 9.43889 8.0625H12.6861C12.572 8.85647 11.8875 9.46875 11.0625 9.46875ZM8.09752 6.65625C8.4157 5.31398 9.62433 4.3125 11.0625 4.3125C12.5007 4.3125 13.7093 5.31398 14.0275 6.65625H8.09752Z" fill="#443571"/>
<path d="M16.6905 12.7031C17.0788 12.7031 17.3936 12.3883 17.3936 12C17.3936 11.6117 17.0788 11.2969 16.6905 11.2969C16.3021 11.2969 15.9873 11.6117 15.9873 12C15.9873 12.3883 16.3021 12.7031 16.6905 12.7031Z" fill="#443571"/>
<path d="M19.1764 9.51409C18.9019 9.2395 18.4567 9.23954 18.1821 9.51409C17.9075 9.78869 17.9075 10.2339 18.1821 10.5085C19.0045 11.3309 19.0045 12.6691 18.1821 13.4916C17.9075 13.7662 17.9075 14.2114 18.1821 14.4859C18.3194 14.6232 18.4993 14.6919 18.6792 14.6919C18.8591 14.6919 19.0391 14.6232 19.1764 14.4859C20.5471 13.1152 20.5471 10.8848 19.1764 9.51409Z" fill="#443571"/>
<path d="M21.1651 7.5254C20.8905 7.25081 20.4453 7.25081 20.1707 7.5254C19.8961 7.8 19.8961 8.24517 20.1707 8.51976C21.1004 9.44938 21.6123 10.6854 21.6123 12.0001C21.6123 13.3148 21.1004 14.5508 20.1707 15.4804C19.8961 15.755 19.8961 16.2002 20.1707 16.4748C20.308 16.6121 20.488 16.6807 20.6679 16.6807C20.8478 16.6807 21.0278 16.6121 21.165 16.4748C23.6325 14.0074 23.6325 9.99271 21.1651 7.5254Z" fill="#443571"/>
</svg>
