<svg width="16" height="16" viewBox="0 0 16 16" fill="none" xmlns="http://www.w3.org/2000/svg">
<path d="M12.8205 15.9999C12.1233 15.9999 11.1438 15.7477 9.67704 14.9284C7.89346 13.9284 6.5139 13.0052 4.73996 11.2362C3.02961 9.52728 2.1973 8.42084 1.03242 6.30153C-0.283565 3.90864 -0.0592336 2.65434 0.191532 2.11827C0.490164 1.47754 0.930969 1.09432 1.50073 0.713963C1.82435 0.501973 2.16682 0.32025 2.52379 0.171099C2.55952 0.155742 2.59274 0.141099 2.62239 0.127884C2.79921 0.0482406 3.06712 -0.0721179 3.40648 0.056455C3.63295 0.141456 3.83513 0.315387 4.15163 0.627891C4.80069 1.2679 5.68766 2.69327 6.01486 3.39328C6.23455 3.86507 6.37994 4.1765 6.3803 4.52579C6.3803 4.93473 6.17454 5.25009 5.92485 5.59045C5.87805 5.65438 5.83161 5.71545 5.7866 5.77474C5.51476 6.13189 5.45511 6.2351 5.4944 6.41939C5.57406 6.78975 6.16811 7.89226 7.14438 8.8662C8.12065 9.84015 9.19159 10.3966 9.56345 10.4759C9.75563 10.5169 9.86101 10.4548 10.2297 10.1734C10.2825 10.133 10.3368 10.0912 10.3936 10.0494C10.7744 9.76622 11.0752 9.56586 11.4746 9.56586H11.4767C11.8243 9.56586 12.1218 9.71657 12.6148 9.96515C13.2578 10.2894 14.7263 11.1648 15.3703 11.8145C15.6836 12.1302 15.8583 12.3316 15.9437 12.5577C16.0723 12.898 15.9512 13.1648 15.8722 13.3434C15.859 13.373 15.8444 13.4055 15.829 13.4416C15.6787 13.7979 15.4958 14.1396 15.2828 14.4623C14.9031 15.0302 14.5184 15.4699 13.8761 15.7688C13.5463 15.9248 13.1854 16.0038 12.8205 15.9999Z" fill="#443571"/>
</svg>
