<svg width="17" height="22" viewBox="0 0 17 22" fill="none" xmlns="http://www.w3.org/2000/svg">
<path d="M16.2571 0.785714C16.2571 0.57733 16.1744 0.37748 16.027 0.23013C15.8797 0.0827803 15.6798 0 15.4714 0H1.32856C1.12018 0 0.920327 0.0827803 0.772977 0.23013C0.625627 0.37748 0.542847 0.57733 0.542847 0.785714V21.2143C0.542847 21.4227 0.625627 21.6225 0.772977 21.7699C0.920327 21.9172 1.12018 22 1.32856 22H15.4714C15.6798 22 15.8797 21.9172 16.027 21.7699C16.1744 21.6225 16.2571 21.4227 16.2571 21.2143V0.785714ZM5.25713 19.6429H2.89999V17.2857H5.25713V19.6429ZM5.25713 15.7143H2.89999V13.3571H5.25713V15.7143ZM5.25713 11.7857H2.89999V9.42857H5.25713V11.7857ZM9.57856 19.6429H7.22142V17.2857H9.57856V19.6429ZM9.57856 15.7143H7.22142V13.3571H9.57856V15.7143ZM9.57856 11.7857H7.22142V9.42857H9.57856V11.7857ZM13.9 19.6429H11.5428V13.3571H13.9V19.6429ZM13.9 11.7857H11.5428V9.42857H13.9V11.7857ZM13.9 7.07143H2.89999V2.35714H13.9V7.07143Z" fill="#443571"/>
</svg>
