<svg width="21" height="20" viewBox="0 0 21 20" fill="none" xmlns="http://www.w3.org/2000/svg">
<path d="M17.7231 0H3.87691C3.06113 0.000890796 2.27902 0.325352 1.70218 0.902194C1.12534 1.47904 0.800879 2.26115 0.799988 3.07692V16.9231C0.800879 17.7389 1.12534 18.521 1.70218 19.0978C2.27902 19.6746 3.06113 19.9991 3.87691 20H17.7231C18.5388 19.9991 19.321 19.6746 19.8978 19.0978C20.4746 18.521 20.7991 17.7389 20.8 16.9231V3.07692C20.7991 2.26115 20.4746 1.47904 19.8978 0.902194C19.321 0.325352 18.5388 0.000890796 17.7231 0ZM16.0043 6.64856L9.54278 14.3409C9.4719 14.4253 9.3837 14.4935 9.28416 14.5409C9.18463 14.5882 9.07607 14.6136 8.96585 14.6154H8.95287C8.84505 14.6153 8.73845 14.5926 8.63997 14.5487C8.54149 14.5048 8.45334 14.4407 8.38124 14.3606L5.61201 11.2837C5.54168 11.2091 5.48697 11.1212 5.4511 11.0251C5.41522 10.9291 5.39891 10.8268 5.40312 10.7244C5.40732 10.622 5.43196 10.5214 5.47558 10.4286C5.5192 10.3359 5.58093 10.2527 5.65714 10.1842C5.73334 10.1156 5.82249 10.0629 5.91933 10.0293C6.01618 9.99567 6.11877 9.98173 6.22108 9.98832C6.32338 9.9949 6.42335 10.0219 6.51508 10.0676C6.60682 10.1134 6.68849 10.177 6.75528 10.2548L8.93268 12.674L14.8264 5.65913C14.9586 5.50629 15.1457 5.41161 15.3471 5.39555C15.5486 5.3795 15.7483 5.44337 15.903 5.57335C16.0577 5.70333 16.1551 5.88899 16.1741 6.09018C16.193 6.29138 16.132 6.49196 16.0043 6.64856Z" fill="#D5D5D5"/>
</svg>
