<svg width="21" height="22" viewBox="0 0 21 22" fill="none" xmlns="http://www.w3.org/2000/svg">
<path d="M14.3637 1.59998C13.408 0.568195 12.0732 0 10.5999 0C9.11878 0 7.77957 0.564757 6.82833 1.59016C5.86677 2.62686 5.39826 4.0358 5.50827 5.55721C5.72631 8.55877 8.01039 11.0005 10.5999 11.0005C13.1895 11.0005 15.4696 8.55926 15.6911 5.55819C15.8026 4.05054 15.3311 2.64454 14.3637 1.59998Z" fill="#D5D5D5"/>
<path d="M19.2432 21.9999H1.95673C1.73046 22.0028 1.50639 21.9553 1.30081 21.8607C1.09522 21.7662 0.913303 21.627 0.768282 21.4533C0.449072 21.0717 0.320405 20.5507 0.415677 20.0237C0.83016 17.7244 2.1237 15.7929 4.15682 14.437C5.96306 13.2334 8.25107 12.5709 10.6 12.5709C12.9489 12.5709 15.2369 13.2339 17.0431 14.437C19.0762 15.7925 20.3698 17.7239 20.7843 20.0232C20.8795 20.5502 20.7509 21.0712 20.4317 21.4528C20.2867 21.6266 20.1048 21.7659 19.8992 21.8605C19.6936 21.9551 19.4695 22.0028 19.2432 21.9999Z" fill="#D5D5D5"/>
</svg>
