<svg width="20" height="22" viewBox="0 0 20 22" fill="none" xmlns="http://www.w3.org/2000/svg">
<path d="M19.35 10.2667H12.9333C12.3499 10.2667 11.7903 10.0349 11.3777 9.6223C10.9651 9.20972 10.7333 8.65014 10.7333 8.06667V1.65C10.7333 1.60138 10.714 1.55475 10.6796 1.52036C10.6453 1.48598 10.5986 1.46667 10.55 1.46667H8.10938C8.02379 1.30815 7.92408 1.15766 7.81147 1.01704C7.28301 0.361167 6.49788 0 5.60001 0C3.87301 0 2.66668 1.35713 2.66668 3.3V9.9C2.66668 11.0458 3.59893 11.7333 4.50001 11.7333C4.7415 11.736 4.98108 11.6904 5.20471 11.5992C5.42833 11.508 5.63148 11.373 5.80225 11.2022C5.97302 11.0315 6.10796 10.8283 6.19916 10.6047C6.29036 10.3811 6.33598 10.1415 6.33334 9.9V2.93333C6.33334 2.73884 6.25608 2.55232 6.11855 2.41479C5.98103 2.27726 5.7945 2.2 5.60001 2.2C5.40552 2.2 5.21899 2.27726 5.08146 2.41479C4.94394 2.55232 4.86668 2.73884 4.86668 2.93333V9.9C4.86827 9.94858 4.85988 9.99697 4.84201 10.0422C4.82415 10.0874 4.7972 10.1284 4.76283 10.1628C4.72846 10.1972 4.6874 10.2241 4.64219 10.242C4.59698 10.2599 4.54859 10.2683 4.50001 10.2667C4.3978 10.2667 4.13334 10.2007 4.13334 9.9V3.3C4.13334 2.41358 4.5188 1.46667 5.60001 1.46667C6.9608 1.46667 7.06668 2.84854 7.06668 3.27158V9.63096C7.06668 10.4307 6.81597 11.154 6.36038 11.6687C5.89793 12.1917 5.25488 12.4667 4.50001 12.4667C3.74513 12.4667 3.10209 12.1917 2.63963 11.6687C2.18405 11.154 1.93334 10.4307 1.93334 9.63096V5.86667C1.93334 5.67217 1.85608 5.48565 1.71855 5.34812C1.58103 5.2106 1.3945 5.13333 1.20001 5.13333C1.00552 5.13333 0.81899 5.2106 0.681463 5.34812C0.543936 5.48565 0.466675 5.67217 0.466675 5.86667V9.63096C0.466675 11.9918 1.98788 13.739 4.13334 13.9178V19.0667C4.13334 19.8446 4.44239 20.5907 4.9925 21.1408C5.5426 21.691 6.28871 22 7.06668 22H16.6C17.378 22 18.1241 21.691 18.6742 21.1408C19.2243 20.5907 19.5333 19.8446 19.5333 19.0667V10.45C19.5333 10.4014 19.514 10.3547 19.4796 10.3204C19.4453 10.286 19.3986 10.2667 19.35 10.2667Z" fill="#D5D5D5"/>
<path d="M12.9333 8.79983H18.8829C18.901 8.79976 18.9187 8.79434 18.9337 8.78426C18.9487 8.77419 18.9604 8.7599 18.9673 8.74319C18.9742 8.72649 18.976 8.70812 18.9725 8.69039C18.969 8.67266 18.9603 8.65636 18.9476 8.64354L12.3563 2.05225C12.3435 2.03951 12.3272 2.03084 12.3094 2.02733C12.2917 2.02383 12.2733 2.02564 12.2566 2.03255C12.2399 2.03945 12.2256 2.05114 12.2156 2.06615C12.2055 2.08115 12.2001 2.0988 12.2 2.11687V8.0665C12.2 8.26099 12.2772 8.44752 12.4148 8.58504C12.5523 8.72257 12.7388 8.79983 12.9333 8.79983Z" fill="#D5D5D5"/>
</svg>
